<svg xmlns="http://www.w3.org/2000/svg" viewBox="0 100 512.001 400">
  <path
    d="M20.677 278.308l2.28 6.841a21.39 21.39 0 0 0 14.281 13.783c29.763 8.699 113.851 32.107 156.976 32.107h256.009c17.655 0 43.452-7.618 57.888-12.847 4.911-1.779 5.248-8.553.577-10.888l-23.153-11.577s-8.828-26.484-150.074-26.484H158.902l-61.795-17.656-56.494-72.635a17.658 17.658 0 0 0-13.937-6.816H15.018c-3.118 0-5.383 2.965-4.562 5.973l24.855 91.134h-8.1c-4.701-.001-8.02 4.604-6.534 9.065z"
    fill="#96e178"/>
  <path d="M508.687 307.302l-23.152-11.576H282.493l158.902 35.312h8.828c17.656 0 43.452-7.618 57.887-12.847 4.911-1.779 5.248-8.553.577-10.889z" fill="#cac9cd"/>
  <path fill="#a7a5ac" d="M308.977 322.21l-88.279-26.484h-35.312l61.795 35.312h61.796z"/>
  <path d="M27.212 269.242c-4.701 0-8.021 4.605-6.534 9.065l2.28 6.842c1.457 4.37 4.34 7.978 7.993 10.577h454.584s-8.828-26.484-150.074-26.484H27.212z" fill="#dcdbde"/>
  <path d="M308.977 339.866l-31.51-5.908a4.661 4.661 0 0 1-3.802-4.581v-5.506a4.662 4.662 0 0 1 3.802-4.581l31.51-5.908v26.484z" fill="#8d8a94"/>
  <path d="M344.288 339.866h-35.312a8.829 8.829 0 0 1-8.828-8.828v-8.828a8.829 8.829 0 0 1 8.828-8.828h35.312a8.829 8.829 0 0 1 8.828 8.828v8.828a8.828 8.828 0 0 1-8.828 8.828z" fill="#dcdbde"/>
  <path d="M0 260.415h24.852c1.081 0 2.155.174 3.18.516l51.419 17.139H26.484L0 260.415z" fill="#a7a5ac"/>
  <g fill="#736f7b">
    <path d="M474.377 286.898h-10.911a4.414 4.414 0 1 0 0 8.828h22.07c-.001 0-1.362-3.967-11.159-8.828z"/>
    <circle cx="428.154" cy="291.31" r="4.414"/>
    <circle cx="410.498" cy="291.31" r="4.414"/>
    <circle cx="392.842" cy="291.31" r="4.414"/>
    <circle cx="375.186" cy="291.31" r="4.414"/>
    <circle cx="357.53" cy="291.31" r="4.414"/>
    <circle cx="339.875" cy="291.31" r="4.414"/>
    <circle cx="313.391" cy="291.31" r="4.414"/>
    <circle cx="295.735" cy="291.31" r="4.414"/>
    <circle cx="278.079" cy="291.31" r="4.414"/>
    <circle cx="260.423" cy="291.31" r="4.414"/>
    <circle cx="242.768" cy="291.31" r="4.414"/>
    <circle cx="225.112" cy="291.31" r="4.414"/>
    <circle cx="207.456" cy="291.31" r="4.414"/>
    <circle cx="189.8" cy="291.31" r="4.414"/>
    <circle cx="172.144" cy="291.31" r="4.414"/>
    <circle cx="154.488" cy="291.31" r="4.414"/>
    <circle cx="136.833" cy="291.31" r="4.414"/>
    <circle cx="119.177" cy="291.31" r="4.414"/>
  </g>
  <path d="M29.756 196.335l18.613 37.224a21.027 21.027 0 0 0 14.684 11.216l34.055 6.812-48.064-61.795H33.8c-3.361-.001-5.547 3.537-4.044 6.543z" fill="#cac9cd"/>
</svg>