<svg xmlns="http://www.w3.org/2000/svg" width="512.001" height="167.73"><path d="M20.677 106.172l2.28 6.841a21.39 21.39 0 0 0 14.281 13.783c29.763 8.699 113.851 32.107 156.976 32.107h256.009c17.655 0 43.452-7.618 57.888-12.847 4.911-1.779 5.248-8.553.577-10.888l-23.153-11.577s-8.828-26.484-150.074-26.484H158.902L97.107 79.451 40.613 6.816A17.658 17.658 0 0 0 26.676 0H15.018C11.9 0 9.635 2.965 10.456 5.973l24.855 91.134h-8.1c-4.701-.001-8.02 4.604-6.534 9.065z" fill="#96e178"/><path d="M508.687 135.166l-23.152-11.576H282.493l158.902 35.312h8.828c17.656 0 43.452-7.618 57.887-12.847 4.911-1.779 5.248-8.553.577-10.889z" fill="#cac9cd"/><path fill="#a7a5ac" d="M185.386 123.59l61.795 35.312h61.796v-8.828l-88.279-26.484z"/><path d="M27.212 97.106c-4.701 0-8.021 4.605-6.534 9.065l2.28 6.842c1.457 4.37 4.34 7.978 7.993 10.577h454.584s-8.828-26.484-150.074-26.484H35.312z" fill="#dcdbde"/><path d="M308.977 167.73l-31.51-5.908a4.661 4.661 0 0 1-3.802-4.581v-5.506a4.662 4.662 0 0 1 3.802-4.581l31.51-5.908z" fill="#8d8a94"/><path d="M344.288 167.73h-35.312a8.829 8.829 0 0 1-8.828-8.828v-8.828a8.829 8.829 0 0 1 8.828-8.828h35.312a8.829 8.829 0 0 1 8.828 8.828v8.828a8.828 8.828 0 0 1-8.828 8.828z" fill="#dcdbde"/><path d="M0 88.279h24.852c1.081 0 2.155.174 3.18.516l51.419 17.139H26.484z" fill="#a7a5ac"/><g transform="translate(0 -172.136)" fill="#736f7b"><path d="M474.377 286.898h-10.911a4.414 4.414 0 1 0 0 8.828h22.07c-.001 0-1.362-3.967-11.159-8.828z"/><circle cx="428.154" cy="291.31" r="4.414"/><circle cx="410.498" cy="291.31" r="4.414"/><circle cx="392.842" cy="291.31" r="4.414"/><circle cx="375.186" cy="291.31" r="4.414"/><circle cx="357.53" cy="291.31" r="4.414"/><circle cx="339.875" cy="291.31" r="4.414"/><circle cx="313.391" cy="291.31" r="4.414"/><circle cx="295.735" cy="291.31" r="4.414"/><circle cx="278.079" cy="291.31" r="4.414"/><circle cx="260.423" cy="291.31" r="4.414"/><circle cx="242.768" cy="291.31" r="4.414"/><circle cx="225.112" cy="291.31" r="4.414"/><circle cx="207.456" cy="291.31" r="4.414"/><circle cx="189.8" cy="291.31" r="4.414"/><circle cx="172.144" cy="291.31" r="4.414"/><circle cx="154.488" cy="291.31" r="4.414"/><circle cx="136.833" cy="291.31" r="4.414"/><circle cx="119.177" cy="291.31" r="4.414"/></g><path d="M29.756 24.199l18.613 37.224a21.027 21.027 0 0 0 14.684 11.216l34.055 6.812-48.064-61.795H33.8c-3.361-.001-5.547 3.537-4.044 6.543z" fill="#cac9cd"/></svg>