<svg xmlns="http://www.w3.org/2000/svg" width="512.001" height="203.032"><path d="M489.8 85.129c-16.628-10.241-70.259-23.335-145.52-23.335l-39.757-46.38A44.14 44.14 0 0 0 271.013.001H152.008a52.968 52.968 0 0 0-34.47 12.751L70.625 52.966l-50.039 7.148a17.653 17.653 0 0 0-14.63 13.195L.006 97.103l132.415 61.792h370.755v-49.903c-.002-9.759-5.068-18.744-13.377-23.863z" fill="#ffb47d"/><path d="M503.174 114.757c0-17.655-26.482-35.31-150.067-35.31H8.832a8.828 8.828 0 0 0-8.827 8.827v52.965l167.725 26.482h335.445v-52.964z" fill="#ff9164"/><path d="M503.174 150.067H89.245l-78.5-17.443c-4.715-1.035-9.474 1.935-10.535 6.702-1.052 4.759 1.95 9.474 6.707 10.53l79.447 17.655a8.66 8.66 0 0 0 1.913.211h414.894a8.826 8.826 0 0 0 8.828-8.827 8.823 8.823 0 0 0-8.825-8.828z" fill="#ff7d5a"/><circle cx="423.721" cy="150.065" r="44.137" fill="#ededee"/><path d="M423.726 203.032c-29.207 0-52.965-23.758-52.965-52.965 0-29.207 23.758-52.965 52.965-52.965 29.207 0 52.965 23.758 52.965 52.965 0 29.207-23.758 52.965-52.965 52.965zm0-88.275c-19.473 0-35.31 15.837-35.31 35.31 0 19.473 15.837 35.31 35.31 35.31 19.473 0 35.31-15.836 35.31-35.31 0-19.473-15.836-35.31-35.31-35.31z" fill="#504b5a"/><circle cx="423.721" cy="150.065" r="17.655" fill="#dcdbde"/><circle cx="88.276" cy="150.065" r="44.137" fill="#ededee"/><path d="M88.28 203.032c-29.207 0-52.965-23.758-52.965-52.965 0-29.207 23.758-52.965 52.965-52.965 29.207 0 52.965 23.758 52.965 52.965 0 29.207-23.759 52.965-52.965 52.965zm0-88.275c-19.473 0-35.31 15.837-35.31 35.31 0 19.473 15.837 35.31 35.31 35.31 19.473 0 35.31-15.836 35.31-35.31 0-19.473-15.837-35.31-35.31-35.31z" fill="#504b5a"/><circle cx="88.276" cy="150.065" r="17.655" fill="#dcdbde"/><g fill="#ff7d5a"><path d="M353.106 132.412H167.73a8.828 8.828 0 0 1 0-17.654h185.377a8.827 8.827 0 0 1 8.827 8.827 8.826 8.826 0 0 1-8.827 8.827zM503.174 132.412h-8.827a8.828 8.828 0 0 1 0-17.654h8.827a8.827 8.827 0 0 1 8.827 8.827 8.826 8.826 0 0 1-8.827 8.827z"/></g><path d="M70.625 52.965l46.914-40.214A52.968 52.968 0 0 1 152.01 0h119.003a44.136 44.136 0 0 1 33.511 15.413l39.756 46.38H135.277c-7.78 0-15.546-.643-23.22-1.922z" fill="#ff9164"/><path d="M261.295 15.18a17.654 17.654 0 0 0-13.563-6.352h-81.524c-4.682 0-9.173 1.86-12.483 5.171l-26.482 26.482a12.484 12.484 0 0 0-3.657 8.827c0 6.894 5.59 12.484 12.484 12.484h154.647c3.742 0 5.786-4.365 3.391-7.24z" fill="#625d6b"/><path fill="#504b5a" d="M176.554 8.828h17.655l-8.827 52.964H158.9z"/><path d="M493.698 88.275h-8.18a8.827 8.827 0 0 0 0 17.654h17.26c-.766-6.865-3.963-13.076-9.08-17.654z" fill="#ededee"/><path d="M304.523 15.413a44.08 44.08 0 0 0-7.036-6.585h-14.406c-3.742 0-5.786 4.364-3.39 7.24l32.812 39.374a17.654 17.654 0 0 0 13.562 6.352h18.213z" fill="#625d6b"/><path d="M.005 88.275v8.827H17.66a8.827 8.827 0 0 0 0-17.654H8.832a8.826 8.826 0 0 0-8.827 8.827z" fill="#ff6464"/></svg>