<svg xmlns="http://www.w3.org/2000/svg" width="512.001" height="220.687"><path d="M.001 105.929l6.455-25.822a35.313 35.313 0 0 1 9.288-16.404l40.448-50.474A35.308 35.308 0 0 1 83.746 0H283.07a26.48 26.48 0 0 1 20.636 9.886l48.848 60.734z" fill="#ff9164"/><path d="M283.071 0H83.747a35.307 35.307 0 0 0-27.555 13.231L15.748 63.707a35.3 35.3 0 0 0-9.285 16.399L.006 105.93l132.415 70.62h370.755v-67.793c0-12.972-9.355-24.065-22.16-26.13-44.695-7.208-128.46-12.006-128.46-12.006L303.71 9.887A26.485 26.485 0 0 0 283.071 0z" fill="#aff078"/><g fill="#96e178"><path d="M283.073 0H83.83a35.309 35.309 0 0 0-27.638 13.334l-38.53 48.459 281.927 8.827h52.965L303.71 9.886A26.481 26.481 0 0 0 283.073 0zM503.174 117.93a17.63 17.63 0 0 0-12.642-16.94c-17.615-5.223-56.915-12.716-137.425-12.716H8.832a8.826 8.826 0 0 0-8.827 8.827l-.004 52.966 167.728 17.655h335.445z"/></g><path d="M503.174 158.894H89.245l-78.5-17.443c-4.715-1.035-9.474 1.935-10.535 6.702-1.052 4.759 1.95 9.474 6.707 10.53l79.447 17.655a8.66 8.66 0 0 0 1.913.211h414.894a8.826 8.826 0 0 0 8.828-8.827 8.823 8.823 0 0 0-8.825-8.828z" fill="#8ccd73"/><circle cx="83.863" cy="172.133" r="40.46" fill="#ededee"/><path d="M83.868 220.687c-26.773 0-48.55-21.779-48.55-48.551 0-26.772 21.778-48.551 48.55-48.551s48.551 21.779 48.551 48.551c0 26.773-21.778 48.551-48.55 48.551zm0-79.448c-17.039 0-30.896 13.857-30.896 30.896s13.857 30.896 30.896 30.896c17.04 0 30.896-13.857 30.896-30.896s-13.857-30.896-30.896-30.896z" fill="#504b5a"/><circle cx="83.863" cy="172.133" r="17.655" fill="#dcdbde"/><g fill="#8ccd73"><path d="M344.28 141.239H150.073a8.827 8.827 0 0 1 0-17.654H344.28a8.827 8.827 0 0 1 8.827 8.827 8.826 8.826 0 0 1-8.827 8.827zM503.174 141.239H485.52a8.828 8.828 0 0 1 0-17.654h17.655a8.827 8.827 0 0 1 8.827 8.827 8.826 8.826 0 0 1-8.827 8.827z"/></g><path d="M6.462 80.106l-2.044 8.169h22.065a8.827 8.827 0 0 0 0-17.654h-16.06c-1.757 2.947-3.12 6.126-3.96 9.485z" fill="#ff6464"/><circle cx="410.48" cy="172.133" r="40.46" fill="#ededee"/><path d="M410.485 220.687c-26.773 0-48.55-21.779-48.55-48.551 0-26.772 21.778-48.551 48.55-48.551s48.551 21.779 48.551 48.551c0 26.773-21.778 48.551-48.55 48.551zm0-79.448c-17.039 0-30.896 13.857-30.896 30.896s13.857 30.896 30.896 30.896c17.04 0 30.896-13.857 30.896-30.896s-13.857-30.896-30.896-30.896z" fill="#504b5a"/><circle cx="410.48" cy="172.133" r="17.655" fill="#dcdbde"/><path d="M302.768 63.843l-37.023-48.126a17.656 17.656 0 0 0-13.994-6.89H123.967a17.654 17.654 0 0 0-16.87 12.451L97.67 51.847c-2.879 5.759 1.176 12.563 7.61 12.77l194.31 6.002h.007c3.502 0 5.415-4.084 3.172-6.776z" fill="#625d6b"/><path d="M503.174 108.756c0-4.184-1.065-8.114-2.817-11.654h-14.84a8.827 8.827 0 0 0 0 17.654h17.657z" fill="#ededee"/><path fill="#504b5a" d="M199.211 8.827h-17.655l3.828 58.266 17.655.545z"/><g fill="#625d6b"><path d="M302.993 8.996l-.352-.169h-14.146c-4.232 0-6.614 4.865-4.02 8.208l38.234 49.254a11.195 11.195 0 0 0 8.843 4.33h21.001zM89.101 17.383c1.93-3.95-.946-8.556-5.342-8.556H60.693c-1.593 1.391-3.162 2.824-4.502 4.506l-38.53 48.459 37.586 1.177a17.658 17.658 0 0 0 16.416-9.896z"/></g></svg>