<svg xmlns="http://www.w3.org/2000/svg" width="512.001" height="176.552"><g fill="#d2555a"><path d="M388.414 0H256a8.829 8.829 0 0 0-8.828 8.828v17.655h158.897v-8.828C406.069 7.904 398.165 0 388.414 0zM229.517 8.827H114.759a8.829 8.829 0 0 0-8.828 8.828v8.828h132.414v-8.828a8.829 8.829 0 0 0-8.828-8.828z"/></g><path d="M8.828 17.655h478.436a8.828 8.828 0 0 1 8.618 6.912l15.908 71.586c.14.629.211 1.271.211 1.916v52a8.829 8.829 0 0 1-8.828 8.828H141.24l-132.963-8.31A8.83 8.83 0 0 1 0 141.775V26.482a8.828 8.828 0 0 1 8.828-8.827z" fill="#ff6464"/><path d="M22.069 97.103h488.959l.761-.949-13.521-60.844h-476.2a4.414 4.414 0 0 0-4.414 4.414v52.965a4.415 4.415 0 0 0 4.415 4.414z" fill="#625d6b"/><path d="M8.277 150.586l132.963 8.31h361.932a8.829 8.829 0 0 0 8.828-8.828v-17.655H0v9.362a8.828 8.828 0 0 0 8.277 8.811z" fill="#d2555a"/><circle cx="132.414" cy="150.069" r="26.483" fill="#504b5a"/><circle cx="132.414" cy="150.069" r="13.241" fill="#dcdbde"/><circle cx="388.414" cy="150.069" r="26.483" fill="#504b5a"/><circle cx="388.414" cy="150.069" r="13.241" fill="#dcdbde"/><g fill="#504b5a"><path d="M432.552 44.138h44.138a8.829 8.829 0 0 1 8.828 8.828v97.103a8.829 8.829 0 0 1-8.828 8.828h-44.138a8.829 8.829 0 0 1-8.828-8.828V52.965a8.828 8.828 0 0 1 8.828-8.827zM203.034 44.138h44.138A8.829 8.829 0 0 1 256 52.966v97.103a8.829 8.829 0 0 1-8.828 8.828h-44.138a8.829 8.829 0 0 1-8.828-8.828V52.965a8.829 8.829 0 0 1 8.828-8.827z"/></g><g fill="#625d6b"><path d="M216.276 141.241h-8.828a4.414 4.414 0 0 1-4.414-4.414V66.206a4.414 4.414 0 0 1 4.414-4.414h8.828a4.414 4.414 0 0 1 4.414 4.414v70.621a4.414 4.414 0 0 1-4.414 4.414zM242.759 141.241h-8.828a4.414 4.414 0 0 1-4.414-4.414V66.206a4.414 4.414 0 0 1 4.414-4.414h8.828a4.414 4.414 0 0 1 4.414 4.414v70.621a4.415 4.415 0 0 1-4.414 4.414zM445.793 141.241h-8.828a4.414 4.414 0 0 1-4.414-4.414V66.206a4.414 4.414 0 0 1 4.414-4.414h8.828a4.414 4.414 0 0 1 4.414 4.414v70.621a4.414 4.414 0 0 1-4.414 4.414zM472.276 141.241h-8.828a4.414 4.414 0 0 1-4.414-4.414V66.206a4.414 4.414 0 0 1 4.414-4.414h8.828a4.414 4.414 0 0 1 4.414 4.414v70.621a4.414 4.414 0 0 1-4.414 4.414z"/></g><g fill="#736f7b"><path d="M269.241 88.276h61.793a4.414 4.414 0 0 0 4.414-4.414v-35.31a4.414 4.414 0 0 0-4.414-4.414h-61.793a4.414 4.414 0 0 0-4.414 4.414v35.31a4.416 4.416 0 0 0 4.414 4.414zM119.172 88.276h61.793a4.414 4.414 0 0 0 4.414-4.414v-35.31a4.414 4.414 0 0 0-4.414-4.414h-61.793a4.414 4.414 0 0 0-4.414 4.414v35.31a4.416 4.416 0 0 0 4.414 4.414zM39.724 88.276h61.793a4.414 4.414 0 0 0 4.414-4.414v-35.31a4.414 4.414 0 0 0-4.414-4.414H39.724a4.414 4.414 0 0 0-4.414 4.414v35.31a4.415 4.415 0 0 0 4.414 4.414zM348.69 88.276h61.793a4.414 4.414 0 0 0 4.414-4.414v-35.31a4.414 4.414 0 0 0-4.414-4.414H348.69a4.414 4.414 0 0 0-4.414 4.414v35.31a4.414 4.414 0 0 0 4.414 4.414zM500.231 44.138h-1.472a4.414 4.414 0 0 0-4.414 4.414v35.31a4.414 4.414 0 0 0 4.414 4.414h11.281z"/></g></svg>