<svg xmlns="http://www.w3.org/2000/svg" width="512" height="180.966"><path d="M401.19 165.75a4.415 4.415 0 0 0-5.922-1.974l-12.439 6.22a20.399 20.399 0 0 1-9.078 2.142h-25.856l-8.118-40.59c-.483-2.397-2.897-3.961-5.19-3.462a4.408 4.408 0 0 0-3.466 5.194l7.772 38.858h-95.164l7.772-38.858a4.407 4.407 0 0 0-3.466-5.194c-2.276-.495-4.707 1.065-5.19 3.462l-8.118 40.59h-31.692a4.411 4.411 0 0 0-4.414 4.414 4.411 4.411 0 0 0 4.414 4.414H373.75c4.5 0 9-1.065 13.026-3.073l12.439-6.22a4.418 4.418 0 0 0 1.975-5.923z" fill="#b9b7bd"/><path fill="#a7a5ac" d="M278.069 0h17.655l-4.414 35.311h-8.827z"/><g fill="#504b5a"><path d="M278.069 8.828H66.207a4.414 4.414 0 1 1 0-8.828h211.862a4.414 4.414 0 0 1 0 8.828zM507.586 8.828H295.724a4.414 4.414 0 1 1 0-8.828h211.862a4.414 4.414 0 1 1 0 8.828z"/></g><path d="M19.551 30.274a6.86 6.86 0 0 0-6.135-3.791H0l17.655 52.966L0 114.759h12.97a9.373 9.373 0 0 0 7.497-3.748l23.671-31.562z" fill="#d2555a"/><path d="M423.272 103.612l-26.03-6.508c-17.655-35.31-44.138-44.138-52.966-44.138h-35.31v-8.828a8.829 8.829 0 0 0-8.828-8.828h-61.793c-21.985 0-62.22 24.334-75.254 32.6a17.514 17.514 0 0 1-9.398 2.71H17.9a9.073 9.073 0 0 0-9.073 9.073 9.072 9.072 0 0 0 8.569 9.058l141.729 7.874a8.819 8.819 0 0 1 7.921 6.168c2.854 9.112 6.176 17.462 9.505 20.792 8.828 8.828 61.793 17.655 79.448 17.655h88.276c38.293 0 67.358-9.228 80.522-14.342 4.71-1.829 7.754-6.35 7.754-11.403a12.247 12.247 0 0 0-9.279-11.883z" fill="#dcdbde"/><g fill="#625d6b"><path d="M269.241 61.793a4.414 4.414 0 0 0-4.414 4.414v35.31a4.414 4.414 0 0 0 4.414 4.414h35.31a4.414 4.414 0 0 0 4.414-4.414v-35.31a4.414 4.414 0 0 0-4.414-4.414zM340.841 61.793h-15.586a4.414 4.414 0 0 0-4.414 4.414v35.31a4.414 4.414 0 0 0 4.414 4.414h23.433c2.824 0 4.921-2.615 4.309-5.372l-7.847-35.31a4.414 4.414 0 0 0-4.309-3.456zM367.785 103.633c.499 1.497 2.001 2.405 3.564 2.191 2.018-.276 4.013-.702 5.954-1.348l19.938-7.372c-9.237-18.475-20.876-29.653-31.154-36.157h-8.032c-2.214 0-3.776 2.168-3.076 4.267z"/></g><g fill="#ff6464"><path d="M432.552 115.497a12.25 12.25 0 0 0-9.28-11.885l-26.03-6.508-25.891 8.828H168.097c2.607 7.822 5.518 14.72 8.455 17.655h252.801c1.96-2.199 3.199-5.001 3.199-8.09zM256 44.138V35.31h-17.655c-21.985 0-62.22 24.334-75.254 32.6a17.514 17.514 0 0 1-9.398 2.71H17.9a9.073 9.073 0 1 0-.504 18.131l141.728 7.874c2.401.134 4.518 1.301 6.047 3.03l48.128-40.475a26.48 26.48 0 0 1 17.045-6.215h16.828A8.827 8.827 0 0 0 256 44.138z"/></g></svg>