<svg xmlns="http://www.w3.org/2000/svg" width="512" height="317.793"><path d="M335.448 52.966a8.796 8.796 0 0 1-6.241-2.586 8.825 8.825 0 0 1 0-12.483l13.155-13.155-1.103-2.207a8.788 8.788 0 0 0-7.896-4.879h-24.397a8.826 8.826 0 0 1-8.828-8.828A8.826 8.826 0 0 1 308.966 0h24.396c10.094 0 19.172 5.608 23.69 14.638L361 22.534a8.822 8.822 0 0 1-1.655 10.189L341.69 50.378a8.794 8.794 0 0 1-6.242 2.588z" fill="#625d6b"/><path d="M105.931 317.793C47.517 317.793 0 270.272 0 211.862s47.518-105.931 105.931-105.931 105.931 47.521 105.931 105.931-47.517 105.931-105.931 105.931zm0-194.207c-48.672 0-88.276 39.599-88.276 88.276s39.604 88.276 88.276 88.276 88.276-39.599 88.276-88.276-39.604-88.276-88.276-88.276z" fill="#504b5a"/><path d="M105.931 300.138c-48.672 0-88.276-39.599-88.276-88.276s39.604-88.276 88.276-88.276 88.276 39.599 88.276 88.276-39.604 88.276-88.276 88.276zm0-158.897c-38.94 0-70.621 31.681-70.621 70.621s31.681 70.621 70.621 70.621 70.621-31.681 70.621-70.621-31.681-70.621-70.621-70.621z" fill="#ededee"/><path d="M406.069 317.793c-58.414 0-105.931-47.521-105.931-105.931s47.518-105.931 105.931-105.931S512 153.452 512 211.862s-47.517 105.931-105.931 105.931zm0-194.207c-48.672 0-88.276 39.599-88.276 88.276s39.604 88.276 88.276 88.276 88.276-39.599 88.276-88.276-39.604-88.276-88.276-88.276z" fill="#504b5a"/><path d="M406.069 300.138c-48.672 0-88.276-39.599-88.276-88.276s39.604-88.276 88.276-88.276 88.276 39.599 88.276 88.276-39.604 88.276-88.276 88.276zm0-158.897c-38.94 0-70.621 31.681-70.621 70.621s31.681 70.621 70.621 70.621 70.621-31.681 70.621-70.621-31.681-70.621-70.621-70.621z" fill="#ededee"/><g transform="translate(0 -97.104)" fill="#736f7b"><circle cx="105.931" cy="308.966" r="17.655"/><circle cx="406.069" cy="308.966" r="8.828"/></g><path d="M413.638 207.319l-26.035-43.388-43.844-122.763c-1.63-4.582-6.716-6.991-11.276-5.345-4.595 1.642-6.991 6.694-5.345 11.285l2.573 7.206c-37.639 11.988-58.104 40.03-74.643 62.691-9.998 13.707-18.79 25.725-29.357 32.529l-32.004-90.679-16.655 5.879 18.345 51.978-95.475 88.682a8.84 8.84 0 0 0-2.207 9.698 8.826 8.826 0 0 0 8.217 5.598h132.414c27.043 0 39.776-26.56 53.25-54.677 12.493-26.052 26.6-55.475 53.565-68.446l26.116 73.127a8.28 8.28 0 0 0 .742 1.574l26.483 44.138a8.817 8.817 0 0 0 7.577 4.285 8.829 8.829 0 0 0 7.559-13.372zm-211.835-72.458l24.061 68.173h-97.459zm73.869 23.518c-11.446 23.884-19.648 39.783-31.415 43.701l-12.558-35.581c15.159-8.331 26.094-23.277 37.628-39.085 16.641-22.807 33.853-46.365 66.326-56.461l3.549 9.937c-33.678 15.281-50.214 49.717-63.53 77.489z" fill="#ff9164"/><path d="M150.069 61.793a8.829 8.829 0 0 0 8.828 8.828h26.483c6.234 0 25.681-4.404 36.565-6.99a9.851 9.851 0 0 0 7.573-9.61c0-5.458-4.425-9.882-9.882-9.882h-60.738a8.829 8.829 0 0 0-8.828 8.828v8.826z" fill="#625d6b"/><path d="M247.172 256c-19.474 0-35.31-15.84-35.31-35.31 0-19.47 15.837-35.31 35.31-35.31 19.473 0 35.31 15.84 35.31 35.31 0 19.47-15.836 35.31-35.31 35.31zm0-52.966c-9.732 0-17.655 7.918-17.655 17.655 0 9.737 7.923 17.655 17.655 17.655 9.732 0 17.655-7.918 17.655-17.655.001-9.736-7.922-17.655-17.655-17.655z" fill="#736f7b"/><path d="M264.828 282.487a8.826 8.826 0 0 1-8.371-6.039l-17.655-52.966a8.83 8.83 0 0 1 5.578-11.168 8.795 8.795 0 0 1 11.164 5.582l17.655 52.966a8.83 8.83 0 0 1-8.371 11.625z" fill="#625d6b"/><path d="M282.483 282.483H256a8.826 8.826 0 0 1-8.828-8.828 8.826 8.826 0 0 1 8.828-8.828h26.483a8.826 8.826 0 0 1 8.828 8.828 8.826 8.826 0 0 1-8.828 8.828z" fill="#514a5b"/></svg>