<svg xmlns="http://www.w3.org/2000/svg" width="512.001" height="291.31"><path d="M414.897 185.379h-88.276v26.483H35.31a8.829 8.829 0 0 0-8.828 8.828v17.655a8.829 8.829 0 0 0 8.828 8.828h379.586v-61.794z" fill="#625d6b"/><path d="M335.448 0H8.828A8.829 8.829 0 0 0 0 8.828v194.207a8.829 8.829 0 0 0 8.828 8.828h326.621a8.829 8.829 0 0 0 8.828-8.828V8.827A8.83 8.83 0 0 0 335.448 0z" fill="#dcdbde"/><g fill="#cac9cd"><path d="M317.793 194.207H26.483a8.829 8.829 0 0 1 0-17.656h291.31a8.829 8.829 0 0 1 0 17.656zM317.793 35.31H26.483a8.829 8.829 0 0 1 0-17.656h291.31a8.828 8.828 0 0 1 0 17.656z"/></g><path d="M446.909 44.138h-76.15a8.829 8.829 0 0 0-8.828 8.828V185.38a8.829 8.829 0 0 0 8.828 8.828h39.724v44.138h92.69v-63.058a88.28 88.28 0 0 0-5.884-31.689l-33.901-88.144a17.656 17.656 0 0 0-16.479-11.317z" fill="#64bef0"/><path fill="#00aadc" d="M410.483 194.207h92.69v44.138h-92.69z"/><circle cx="101.517" cy="242.758" r="40.46" fill="#ededee"/><path d="M101.517 291.31c-26.773 0-48.552-21.779-48.552-48.552s21.779-48.552 48.552-48.552 48.552 21.779 48.552 48.552-21.779 48.552-48.552 48.552zm0-79.448c-17.039 0-30.897 13.857-30.897 30.897s13.858 30.896 30.897 30.896c17.039 0 30.897-13.857 30.897-30.897s-13.857-30.896-30.897-30.896z" fill="#504b5a"/><circle cx="101.517" cy="242.758" r="17.655" fill="#dcdbde"/><circle cx="410.483" cy="242.758" r="40.46" fill="#ededee"/><path d="M410.483 291.31c-26.773 0-48.552-21.779-48.552-48.552s21.779-48.552 48.552-48.552 48.552 21.779 48.552 48.552c-.001 26.773-21.779 48.552-48.552 48.552zm0-79.448c-17.039 0-30.897 13.857-30.897 30.897s13.857 30.896 30.897 30.896 30.897-13.857 30.897-30.897-13.858-30.896-30.897-30.896z" fill="#504b5a"/><circle cx="410.483" cy="242.758" r="17.655" fill="#dcdbde"/><path d="M494.345 247.172h8.828a8.829 8.829 0 0 0 8.828-8.828v-17.655a8.829 8.829 0 0 0-8.828-8.828h-8.828a8.829 8.829 0 0 0-8.828 8.828v17.655a8.828 8.828 0 0 0 8.828 8.828z" fill="#625d6b"/><path d="M494.345 176.552h8.828v26.483h-8.828a8.829 8.829 0 0 1-8.828-8.828v-8.828a8.828 8.828 0 0 1 8.828-8.827z" fill="#ededee"/><path d="M444.242 61.793h-55.828a8.829 8.829 0 0 0-8.828 8.828v44.138a8.829 8.829 0 0 0 8.828 8.828h82.434c4.476 0 7.56-4.49 5.953-8.668L460.722 73.11a17.658 17.658 0 0 0-16.48-11.317z" fill="#625d6b"/></svg>