<svg xmlns="http://www.w3.org/2000/svg" width="512.001" height="211.862"><path d="M199.058 185.379H26.484a8.829 8.829 0 0 1-8.828-8.828v-17.655h264.828l-58.631 21.986a70.577 70.577 0 0 1-24.795 4.497z" fill="#8d8a94"/><path d="M353.104 167.724H17.656a8.829 8.829 0 0 1-8.828-8.828v-26.483h344.276z" fill="#a7a5ac"/><path d="M432.553 97.103l-15.435-56.244a8.829 8.829 0 0 0-8.196-5.549h-55.817a8.829 8.829 0 0 0-8.828 8.828v114.759h150.069v-45.31a8.827 8.827 0 0 0-7.58-8.739z" fill="#64bef0"/><g fill="#00aadc"><path d="M344.277 97.103h88.276l-12.114-44.138h-76.162zM406.07 185.379h97.103v-35.31c0-9.751-7.904-17.655-17.655-17.655h-61.793c-9.751 0-17.655 7.904-17.655 17.655z"/></g><path d="M507.587 185.379H406.07v-17.655h101.517a4.414 4.414 0 0 1 4.414 4.414v8.828a4.414 4.414 0 0 1-4.414 4.413z" fill="#736f7b"/><circle cx="463.449" cy="180.965" r="30.897" fill="#504b5a"/><circle cx="463.449" cy="180.965" r="17.655" fill="#dcdbde"/><path d="M353.104 185.379h52.966a8.829 8.829 0 0 0 8.828-8.828v-8.828a8.829 8.829 0 0 0-8.828-8.828h-52.966a8.829 8.829 0 0 0-8.828 8.828v8.828a8.829 8.829 0 0 0 8.828 8.828z" fill="#b9b7bd"/><circle cx="75.035" cy="180.965" r="30.897" fill="#504b5a"/><circle cx="75.035" cy="180.965" r="17.655" fill="#dcdbde"/><circle cx="145.656" cy="180.965" r="30.897" fill="#504b5a"/><circle cx="145.656" cy="180.965" r="17.655" fill="#dcdbde"/><path d="M339.863 141.241h-8.828a4.414 4.414 0 0 1-4.414-4.414V57.379a4.414 4.414 0 0 1 4.414-4.414h8.828a4.414 4.414 0 0 1 4.414 4.414v79.448a4.414 4.414 0 0 1-4.414 4.414z" fill="#b9b7bd"/><path d="M344.277 0h-26.483a8.826 8.826 0 0 0-8.828 8.828v17.655H17.656a8.829 8.829 0 0 0-8.828 8.828v88.276a8.829 8.829 0 0 0 0 17.656h308.966a8.829 8.829 0 0 0 8.828-8.828V17.655h17.655a8.826 8.826 0 0 0 8.828-8.828A8.827 8.827 0 0 0 344.277 0z" fill="#736f7b"/><g fill="#625d6b"><path d="M422.047 97.103h10.506l-12.114-44.138h-6.613c-4.013 0-7.023 3.671-6.236 7.606l5.905 29.522a8.722 8.722 0 0 0 8.552 7.01zM399.658 97.103h-33.312a4.414 4.414 0 0 1-4.414-4.414v-35.31a4.414 4.414 0 0 1 4.414-4.414h25.69a6.351 6.351 0 0 1 6.228 5.106l6.549 32.745c.65 3.253-1.838 6.287-5.155 6.287zM304.553 123.586H30.898a4.414 4.414 0 0 1-4.414-4.414V48.551a4.414 4.414 0 0 1 4.414-4.414h273.655a4.414 4.414 0 0 1 4.414 4.414v70.621a4.414 4.414 0 0 1-4.414 4.414z"/></g><g fill="#736f7b"><path d="M66.208 114.759H57.38a4.414 4.414 0 0 1-4.414-4.414V57.379a4.414 4.414 0 0 1 4.414-4.414h8.828a4.414 4.414 0 0 1 4.414 4.414v52.966a4.415 4.415 0 0 1-4.414 4.414zM119.173 114.759h-8.828a4.414 4.414 0 0 1-4.414-4.414V57.379a4.414 4.414 0 0 1 4.414-4.414h8.828a4.414 4.414 0 0 1 4.414 4.414v52.966a4.414 4.414 0 0 1-4.414 4.414zM172.139 114.759h-8.828a4.414 4.414 0 0 1-4.414-4.414V57.379a4.414 4.414 0 0 1 4.414-4.414h8.828a4.414 4.414 0 0 1 4.414 4.414v52.966a4.415 4.415 0 0 1-4.414 4.414zM225.104 114.759h-8.828a4.414 4.414 0 0 1-4.414-4.414V57.379a4.414 4.414 0 0 1 4.414-4.414h8.828a4.414 4.414 0 0 1 4.414 4.414v52.966a4.414 4.414 0 0 1-4.414 4.414zM278.07 114.759h-8.828a4.414 4.414 0 0 1-4.414-4.414V57.379a4.414 4.414 0 0 1 4.414-4.414h8.828a4.414 4.414 0 0 1 4.414 4.414v52.966a4.415 4.415 0 0 1-4.414 4.414z"/></g><path d="M194.208 136.828a4.392 4.392 0 0 1-3.319-1.508 4.408 4.408 0 0 1 .414-6.229L332.544 5.505a4.403 4.403 0 0 1 6.225.418 4.408 4.408 0 0 1-.414 6.229L197.113 135.737a4.385 4.385 0 0 1-2.905 1.091z" fill="#dcdbde"/></svg>