<svg xmlns="http://www.w3.org/2000/svg" width="512" height="173.56"><path d="M477.288 34.712V21.53a4.734 4.734 0 0 0-3.237-4.491l-42.601-14.2c-3.065-1.022-6.231 1.259-6.231 4.491v27.382z" fill="#ff7d5a"/><path d="M156.203 156.204H34.712a8.679 8.679 0 0 1-8.678-8.678V130.17h130.169z" fill="#8d8a94"/><path d="M234.789 138.848H17.356a8.679 8.679 0 0 1-8.678-8.678v-17.356h286.373l-44.738 22.37a34.729 34.729 0 0 1-15.524 3.664z" fill="#a7a5ac"/><circle cx="138.847" cy="147.526" r="26.034" fill="#504b5a"/><circle cx="138.847" cy="147.526" r="13.017" fill="#dcdbde"/><circle cx="86.78" cy="147.526" r="26.034" fill="#504b5a"/><circle cx="86.78" cy="147.526" r="13.017" fill="#dcdbde"/><path fill="#b9b7bd" d="M321.085 121.492H512v34.712H321.085z"/><circle cx="373.153" cy="147.526" r="26.034" fill="#504b5a"/><circle cx="373.153" cy="147.526" r="13.017" fill="#dcdbde"/><circle cx="321.085" cy="147.526" r="26.034" fill="#504b5a"/><circle cx="321.085" cy="147.526" r="13.017" fill="#dcdbde"/><path d="M512 138.848h-43.39v-17.356h-43.39V26.034h70.441a8.678 8.678 0 0 1 8.611 7.602l6.053 48.42A216.899 216.899 0 0 1 512 108.965z" fill="#ff9164"/><path fill="#ff7d5a" d="M468.61 121.492H512v17.356h-43.39z"/><circle cx="468.61" cy="147.526" r="26.034" fill="#504b5a"/><circle cx="468.61" cy="147.526" r="13.017" fill="#dcdbde"/><g fill="#ff7d5a"><path d="M468.61 43.39h-21.695a4.34 4.34 0 0 0-4.339 4.339v25.152a6.508 6.508 0 0 0 5.096 6.353l20.938 4.652z"/><path d="M510.325 82.056l-4.834-38.666h-58.576a4.34 4.34 0 0 0-4.339 4.339v25.152a6.508 6.508 0 0 0 5.096 6.353l63.713 14.158c-.272-3.785-.589-7.569-1.06-11.336z"/></g><path d="M468.61 83.887l42.776 9.506c-.272-3.786-.59-7.569-1.061-11.338l-4.834-38.665H468.61z" fill="#625d6b"/><path d="M8.678 0h399.186a8.679 8.679 0 0 1 8.678 8.678v104.136a8.679 8.679 0 0 1-8.678 8.678H8.678A8.679 8.679 0 0 1 0 112.814V8.678A8.679 8.679 0 0 1 8.678 0z" fill="#ffb47d"/><path d="M390.508 104.136H26.034a8.679 8.679 0 0 1 0-17.356h364.475a8.679 8.679 0 0 1 8.678 8.678 8.68 8.68 0 0 1-8.679 8.678z" fill="#ff9164"/></svg>