<svg xmlns="http://www.w3.org/2000/svg" width="512" height="240.417"><path d="M298.305 57.879c-.226 0-.452-.018-.687-.052L181.861 40.018a4.455 4.455 0 0 1-3.722-5.079c.374-2.431 2.609-4.057 5.079-3.722l115.757 17.809a4.455 4.455 0 0 1 3.722 5.079 4.454 4.454 0 0 1-4.392 3.774z" fill="#ff6464"/><path fill="#625d6b" d="M280.487 62.331h17.809v26.713h-17.809z"/><path fill="#504b5a" d="M8.904 26.713h8.904v62.33H8.904z"/><path fill="#625d6b" d="M325.009 178.087h26.713V204.8h-26.713z"/><path d="M414.052 213.705h-62.33a8.905 8.905 0 0 1-8.904-8.904v-35.617h71.235v44.521z" fill="#736f7b"/><path d="M391.791 204.8h-26.713a4.452 4.452 0 0 1-4.452-4.452v-8.904a4.452 4.452 0 0 1 4.452-4.452h26.713a4.452 4.452 0 0 1 4.452 4.452v8.904a4.452 4.452 0 0 1-4.452 4.452z" fill="#625d6b"/><path d="M325.009 204.8H22.261a8.905 8.905 0 0 1-8.904-8.904v-35.617h311.652z" fill="#736f7b"/><path fill="#625d6b" d="M244.87 160.279h80.139v17.809H244.87z"/><path d="M431.861 124.661l-15.569-56.733a8.906 8.906 0 0 0-8.268-5.598h-56.302a8.905 8.905 0 0 0-8.904 8.904v106.852h151.374v-36.799a8.904 8.904 0 0 0-7.645-8.815z" fill="#ff6464"/><path fill="#d2555a" d="M342.817 124.661h89.044l-12.219-44.522h-76.825z"/><path d="M218.157 222.609h53.426a8.905 8.905 0 0 0 8.904-8.904v-17.809a8.905 8.905 0 0 0-8.904-8.904h-53.426a8.905 8.905 0 0 0-8.904 8.904v17.809a8.903 8.903 0 0 0 8.904 8.904z" fill="#b9b7bd"/><circle cx="115.757" cy="209.252" r="31.165" fill="#504b5a"/><circle cx="115.757" cy="209.252" r="17.809" fill="#dcdbde"/><circle cx="178.087" cy="209.252" r="31.165" fill="#504b5a"/><circle cx="178.087" cy="209.252" r="17.809" fill="#dcdbde"/><g fill="#625d6b"><path d="M421.264 124.661h10.597l-12.219-44.522h-6.671c-4.048 0-7.085 3.703-6.29 7.672l5.956 29.778a8.798 8.798 0 0 0 8.627 7.072zM398.68 124.661h-33.602a4.452 4.452 0 0 1-4.452-4.452V84.592a4.452 4.452 0 0 1 4.452-4.452h25.914a6.407 6.407 0 0 1 6.282 5.15l6.606 33.03c.656 3.28-1.854 6.341-5.2 6.341z"/></g><g fill="#ff6464"><path d="M258.226 178.087H8.904a4.452 4.452 0 0 1-4.452-4.452v-8.904a4.452 4.452 0 0 1 4.452-4.452h249.322a4.452 4.452 0 0 1 4.452 4.452v8.904a4.452 4.452 0 0 1-4.452 4.452zM329.461 213.705h-8.904a4.452 4.452 0 0 1-4.452-4.452V93.496a4.452 4.452 0 0 1 4.452-4.452h8.904a4.452 4.452 0 0 1 4.452 4.452v115.757a4.452 4.452 0 0 1-4.452 4.452z"/><path d="M62.33 213.705h-8.904a4.452 4.452 0 0 1-4.452-4.452v-35.617a4.452 4.452 0 0 1 4.452-4.452h8.904a4.452 4.452 0 0 1 4.452 4.452v35.617a4.452 4.452 0 0 1-4.452 4.452zM302.748 169.183h-26.713a4.452 4.452 0 0 1-4.452-4.452V84.592a4.452 4.452 0 0 1 4.452-4.452h26.713a4.452 4.452 0 0 1 4.452 4.452v80.139a4.452 4.452 0 0 1-4.452 4.452z"/></g><path d="M405.148 213.705h97.948v-35.617c0-9.836-7.973-17.809-17.809-17.809h-44.522c-19.671 0-35.617 15.947-35.617 35.617z" fill="#d2555a"/><path d="M507.548 213.705h-22.261v-17.809h22.261a4.452 4.452 0 0 1 4.452 4.452v8.904a4.453 4.453 0 0 1-4.452 4.453z" fill="#736f7b"/><circle cx="463.026" cy="209.252" r="31.165" fill="#504b5a"/><circle cx="463.026" cy="209.252" r="17.809" fill="#dcdbde"/><path d="M13.357 0h329.461a8.905 8.905 0 0 1 8.904 8.904v8.904a8.905 8.905 0 0 1-8.904 8.904H13.357z" fill="#ff6464"/><path d="M13.357 44.522a8.905 8.905 0 0 1-8.904-8.904V8.905A8.905 8.905 0 0 1 13.357.001h8.904a8.905 8.905 0 0 1 8.904 8.904v17.809c0 9.835-7.973 17.808-17.808 17.808z" fill="#736f7b"/><path d="M13.357 146.922C5.992 146.922 0 140.931 0 133.566c0-4.979 2.739-9.509 7.148-11.826 1.052-.557 1.756-1.982 1.756-3.552v-11.335a4.45 4.45 0 0 1 4.452-4.452 4.45 4.45 0 0 1 4.452 4.452v11.335c0 4.94-2.495 9.317-6.521 11.431a4.447 4.447 0 0 0-2.383 3.947c0 2.456 2 4.452 4.452 4.452a4.458 4.458 0 0 0 4.452-4.452 4.45 4.45 0 0 1 4.452-4.452 4.45 4.45 0 0 1 4.452 4.452c.001 7.365-5.99 13.356-13.355 13.356z" fill="#ff6464"/><path d="M13.357 115.757a8.905 8.905 0 0 1-8.904-8.904V89.044a8.905 8.905 0 0 1 17.808 0v17.809a8.905 8.905 0 0 1-8.904 8.904z" fill="#ffc84b"/><g fill="#d2555a"><path d="M329.591 10.175a8.907 8.907 0 0 0-12.218 3.052l-24.12 40.2h-12.767a8.905 8.905 0 0 0 0 17.808h17.809l.014-.002c1.053-.002 2.076-.255 3.059-.618.232-.086.451-.164.672-.267.908-.422 1.761-.959 2.494-1.682.079-.077.127-.175.203-.255.433-.459.855-.934 1.193-1.497l26.713-44.522a8.903 8.903 0 0 0-3.052-12.217zM164.73 44.522h17.809a8.905 8.905 0 0 0 8.904-8.904v-8.904h-35.617v8.904a8.905 8.905 0 0 0 8.904 8.904z"/></g></svg>