<svg xmlns="http://www.w3.org/2000/svg" width="512.001" height="273.656"><path fill="#625d6b" d="M220.69 97.104h17.655v26.483H220.69z"/><path d="M273.655 123.587H256V77.938a26.492 26.492 0 0 1 7.758-18.731l4.534-4.534a4.999 4.999 0 0 1 7.069 0l5.414 5.414a4.999 4.999 0 0 1 0 7.069l-4.534 4.534a8.83 8.83 0 0 0-2.586 6.243z" fill="#736f7b"/><path fill="#a7a5ac" d="M374.268 151.462l37.388 48.892-7.018 5.362-37.388-48.892z"/><path fill="#736f7b" d="M35.31 167.725h158.897v-52.966L185.379 8.828H35.31z"/><path d="M148.478 158.897h20.849a8.827 8.827 0 0 0 8.653-7.082l6.159-30.543a44.117 44.117 0 0 0 .718-12.392l-6.193-74.302a8.829 8.829 0 0 0-8.797-8.095H141.24a8.829 8.829 0 0 0-8.828 8.828v75.078c0 2.906.287 5.806.857 8.657l6.551 32.756a8.833 8.833 0 0 0 8.658 7.095z" fill="#625d6b"/><path fill="#8d8a94" d="M185.379 167.725h123.587v-44.138l-114.759-8.828z"/><path d="M105.931 105.931H61.793a8.829 8.829 0 0 1-8.828-8.828V35.31a8.829 8.829 0 0 1 8.828-8.828h44.138a8.829 8.829 0 0 1 8.828 8.828v61.793a8.828 8.828 0 0 1-8.828 8.828z" fill="#625d6b"/><path fill="#ffc84b" d="M70.621 8.828h26.483v114.759H70.621z"/><path d="M8.828 114.759h107.278a8.826 8.826 0 0 1 8.707 7.375l6.371 38.214a8.828 8.828 0 0 0 8.707 7.375h145.052a8.826 8.826 0 0 0 8.374-6.036l13.631-40.894a8.827 8.827 0 0 1 8.374-6.036h55.436v132.414H97.102l.001-79.447H8.828A8.829 8.829 0 0 1 0 158.896v-35.31a8.829 8.829 0 0 1 8.828-8.827z" fill="#ffdc5a"/><path d="M291.31 273.656H44.138C19.762 273.656 0 253.894 0 229.518c0-24.376 19.762-44.138 44.138-44.138H291.31c24.376 0 44.138 19.762 44.138 44.138 0 24.376-19.761 44.138-44.138 44.138z" fill="#504b5a"/><path fill="#ffc84b" d="M44.138 211.862H291.31V256H44.138z"/><g transform="translate(0 -119.172)" fill="#ffdc5a"><circle cx="44.138" cy="348.69" r="26.483"/><circle cx="291.31" cy="348.69" r="26.483"/></g><path fill="#ffc84b" d="M294.133 255.559l-5.586-16.748 132.399-44.161 5.586 16.748z"/><path d="M436.966 256H207.448a4.414 4.414 0 0 1-4.414-4.414v-8.828a4.414 4.414 0 0 1 4.414-4.414h229.517a4.414 4.414 0 0 1 4.414 4.414v8.828a4.414 4.414 0 0 1-4.413 4.414z" fill="#8d8a94"/><path d="M432.552 247.173v-57.379a4.414 4.414 0 0 1 4.414-4.414h8.118a8.828 8.828 0 0 1 7.665 4.448l32.769 57.345h17.655a8.829 8.829 0 0 1 0 17.656h-52.966c-9.751-.001-17.655-7.905-17.655-17.656z" fill="#a7a5ac"/><path d="M414.897 238.345h17.655v-57.379a4.414 4.414 0 0 0-4.414-4.414h-8.828a4.414 4.414 0 0 0-4.414 4.414v57.379z" fill="#ffdc5a"/><path d="M194.207 167.725H17.655l6.388 12.776a8.827 8.827 0 0 0 7.895 4.879h162.269z" fill="#ffc84b"/><path d="M185.379 17.656H26.483a8.829 8.829 0 0 1 0-17.656H185.38a8.829 8.829 0 0 1 8.828 8.828 8.83 8.83 0 0 1-8.829 8.828z" fill="#ffdc5a"/><path d="M378.237 178.448l-73.63-96.284a4.363 4.363 0 0 1 .814-6.115l7.086-5.422a4.363 4.363 0 0 1 6.116.814l73.631 96.284a4.363 4.363 0 0 1-.814 6.115l-7.086 5.422a4.364 4.364 0 0 1-6.117-.814z" fill="#ffc84b"/><path d="M242.759 105.931h-26.483a4.414 4.414 0 0 1-4.414-4.414v-8.828a4.414 4.414 0 0 1 4.414-4.414h26.483a4.414 4.414 0 0 1 4.414 4.414v8.828a4.415 4.415 0 0 1-4.414 4.414z" fill="#736f7b"/></svg>