<svg xmlns="http://www.w3.org/2000/svg" width="512.001" height="162.78"><path fill="#cac9cd" d="M214.183 34.272h17.135v42.837h-17.135z"/><path fill="#736f7b" d="M308.423 34.272h8.567v42.837h-8.567z"/><g fill="#8d8a94"><path d="M415.515 17.135a4.284 4.284 0 0 0-4.284 4.284v68.539a4.284 4.284 0 1 0 8.568 0V21.419a4.284 4.284 0 0 0-4.284-4.284zM137.077 68.539h244.169a4.284 4.284 0 0 1 4.284 4.284v21.418H137.077z"/></g><path d="M338.409 42.837h-128.51a4.284 4.284 0 0 1-4.284-4.284v-8.567a4.284 4.284 0 0 1 4.284-4.284h128.51a4.284 4.284 0 0 1 4.284 4.284v8.567a4.284 4.284 0 0 1-4.284 4.284z" fill="#dcdbde"/><path d="M63.316.001h9.507a4.284 4.284 0 0 1 4.284 4.284v29.986H51.404l7.757-31.024A4.282 4.282 0 0 1 63.316.001z" fill="#b9b7bd"/><g fill="#dcdbde"><path d="M94.24 17.135v42.837H77.106V29.986a4.284 4.284 0 0 0-4.284-4.284H38.553a4.284 4.284 0 1 0 0 8.568h4.284v25.702H21.418a4.284 4.284 0 0 0-4.284 4.284v29.986h128.51V17.136H94.24zM458.351 59.972h42.837a4.284 4.284 0 0 1 4.284 4.284v21.418h-51.404V64.256a4.284 4.284 0 0 1 4.283-4.284z"/></g><path d="M137.077 162.78H57.866a8.566 8.566 0 0 1-8.237-6.213L34.27 102.809h102.808v59.971z" fill="#d2555a"/><path d="M0 89.957v12.851l94.617 47.309a119.947 119.947 0 0 0 53.64 12.663h268.081c7.371 0 14.11-4.165 17.407-10.758a19.454 19.454 0 0 1 9.741-9.184l46.009-19.718a19.47 19.47 0 0 0 10.404-10.66l11.791-29.477c1.126-2.813-.947-5.875-3.977-5.875h-96.481l-17.135 8.567H4.284A4.282 4.282 0 0 0 0 89.957z" fill="#ff6464"/><path d="M507.712 77.106h-96.481l-17.135 8.567H4.284A4.284 4.284 0 0 0 0 89.957v12.851h503.758l7.931-19.827c1.126-2.814-.946-5.875-3.977-5.875z" fill="#625d6b"/><g fill="#cac9cd"><path d="M94.24 42.839h51.404v17.135H94.24zM59.971 85.674H17.135V64.256a4.284 4.284 0 0 1 4.284-4.284h34.269a4.284 4.284 0 0 1 4.284 4.284v21.418z"/></g><path d="M149.928 17.135H89.957a4.284 4.284 0 0 1-4.284-4.284V4.284A4.284 4.284 0 0 1 89.957 0h59.971a4.284 4.284 0 0 1 4.284 4.284v8.567a4.284 4.284 0 0 1-4.284 4.284z" fill="#ededee"/></svg>