<svg xmlns="http://www.w3.org/2000/svg" width="353.104" height="512"><g fill="#a7a5ac"><path d="M155.586 470.737v.435h8.92l8.162-40.827h-9.003zM188.598 471.172h9.007l-8.166-40.827h-9.003z"/></g><path d="M207.47 432.552c3.044 0 5.948-1.25 8.033-3.468 51.987-55.281 137.601-160.303 137.601-252.532C353.104 79.044 274.059 0 176.552 0 79.045 0 0 79.044 0 176.552c0 92.228 85.614 197.251 137.6 252.532a11.015 11.015 0 0 0 8.033 3.468z" fill="#ffe682"/><g fill="#ffc850"><path d="M67.699 344.276h217.706c8.039-11.368 15.821-23.192 23.09-35.31H44.609c7.269 12.118 15.051 23.942 23.09 35.31zM0 176.552c0 8.73.775 17.576 2.208 26.483h348.687c1.433-8.907 2.208-17.752 2.208-26.483 0-21.773-4.13-42.536-11.338-61.793H11.338C4.13 134.016 0 154.778 0 176.552z"/></g><path d="M194.207 512h-35.31a8.829 8.829 0 0 1-8.828-8.828V476.69a8.829 8.829 0 0 1 8.828-8.828h35.31a8.829 8.829 0 0 1 8.828 8.828v26.483a8.829 8.829 0 0 1-8.828 8.827z" fill="#ff9164"/><path d="M205.09 432.552c41.259-54.264 112.703-161.805 112.703-256C317.793 79.044 254.558 0 176.552 0 98.546 0 35.311 79.044 35.311 176.552c0 94.195 71.444 201.736 112.703 256z" fill="#96e178"/><g fill="#8ccd73"><path d="M268.523 335.448H84.581c6.711 12.31 13.695 24.11 20.697 35.31h142.547c7.003-11.199 13.987-23 20.698-35.31zM303.54 256c8.714-26.572 14.253-53.508 14.253-79.448 0-2.98-.239-5.884-.356-8.828H35.667c-.117 2.944-.356 5.847-.356 8.828 0 25.94 5.539 52.876 14.253 79.448z"/></g><path d="M196.172 432.552c28.365-54.264 77.483-161.805 77.483-256C273.655 79.044 230.181 0 176.552 0S79.449 79.044 79.449 176.552c0 94.195 49.118 201.736 77.483 256z" fill="#ffc850"/><g fill="#ffaa50"><path d="M249.07 308.966H104.034a718.933 718.933 0 0 0 12.7 35.31H236.37a719.306 719.306 0 0 0 12.7-35.31zM79.449 176.552c0 8.724.546 17.583 1.333 26.483h191.54c.787-8.899 1.333-17.759 1.333-26.483 0-21.773-2.272-42.536-6.236-61.793H85.684c-3.963 19.257-6.235 40.019-6.235 61.793z"/></g><path d="M183.687 432.552c10.315-54.264 28.175-161.805 28.175-256C211.862 79.044 196.053 0 176.552 0c-19.501 0-35.31 79.044-35.31 176.552 0 94.195 17.86 201.736 28.175 256z" fill="#ff6464"/><g fill="#d2555a"><path d="M141.242 176.552c0 17.341.614 35.136 1.665 52.966h67.289c1.053-17.83 1.665-35.625 1.665-52.966 0-12.094-.246-23.9-.71-35.31h-69.203a877.825 877.825 0 0 0-.706 35.31zM157.383 361.931h38.338a1778.032 1778.032 0 0 0 4.986-35.31h-48.311a1785.265 1785.265 0 0 0 4.987 35.31z"/></g></svg>