<svg xmlns="http://www.w3.org/2000/svg" width="511.999" height="194.207"><g fill="#dcdbde"><path d="M211.862 52.966h26.483L185.379 8.828v8.828z"/><path d="M158.897 88.276l35.31-44.138h73.056c4.13 0 8.13 1.448 11.303 4.092l48.055 40.046z"/></g><g fill="#ededee"><path d="M0 182.848c0 6.273 5.086 11.359 11.359 11.359h391.608c54.084 0 92.637-36.243 107.725-53.216 2.965-3.335.555-8.577-3.907-8.577H88.343a61.782 61.782 0 0 0-32.75 9.393L5.338 173.215A11.36 11.36 0 0 0 0 182.848zM85.438 91.114l7.211-7.211a15.21 15.21 0 0 1 10.755-4.455h230.944a79.442 79.442 0 0 1 35.53 8.387l89.156 44.578H123.586l26.483-35.309H87.918c-3.126 0-4.69-3.779-2.48-5.99z"/></g><path fill="#dcdbde" d="M459.034 132.414l-70.62-35.31H150.069l-26.483 35.31z"/><g fill="#625d6b"><path d="M441.379 123.587l-52.965-26.483h-88.276l89.12 24.306a61.755 61.755 0 0 0 16.259 2.177zM327.777 116.473l-62.949-19.369h-88.276l-13.774 18.366c-2.508 3.345-.122 8.117 4.058 8.117h159.872c4.175 0 5.06-5.886 1.069-7.114z"/></g><path d="M397.241 176.552H61.793a8.829 8.829 0 0 1 0-17.656h335.448a8.828 8.828 0 0 1 0 17.656z" fill="#dcdbde"/><path d="M278.566 48.23a17.653 17.653 0 0 0-11.303-4.092H163.31a4.414 4.414 0 1 0 0 8.828h120.938z" fill="#ededee"/><path d="M205.058 70.621h100.376l-21.186-17.655h-81.214l-3.975 7.949c-2.229 4.459 1.014 9.706 5.999 9.706z" fill="#625d6b"/><path d="M189.793 17.656h-8.828a4.414 4.414 0 0 1-4.414-4.414V4.414A4.414 4.414 0 0 1 180.965 0h8.828a4.414 4.414 0 0 1 4.414 4.414v8.828a4.414 4.414 0 0 1-4.414 4.414z" fill="#ededee"/></svg>