<svg xmlns="http://www.w3.org/2000/svg" width="511.999" height="176.555"><path d="M353.112 44.141a8.81 8.81 0 0 1-7.353-3.932l-12.414-18.621A8.8 8.8 0 0 0 326 17.656h-8.207a8.826 8.826 0 0 1-8.828-8.828A8.826 8.826 0 0 1 317.793 0H326a26.434 26.434 0 0 1 22.035 11.794l12.414 18.621A8.822 8.822 0 0 1 358 42.657a8.817 8.817 0 0 1-4.888 1.484z" fill="#736f7b"/><path d="M498.759 88.279l-9.705-25.88c-2.319-6.186-6.687-11.404-12.396-14.729C457.051 36.249 408.512 9.657 367.99 1.148c-3.352-.704-6.602 1.571-7.274 4.931l-7.613 38.062 70.621 44.138z" fill="#dcdbde"/><path d="M273.655 61.796l32.047-25.639a44.139 44.139 0 0 1 27.573-9.672h21.155a44.14 44.14 0 0 1 28.725 10.626l49.396 42.339H287.652z" fill="#64bef0"/><path d="M176.552 44.141H84.871a13.09 13.09 0 0 0-9.257 3.834L61.793 61.796l141.241 35.31z" fill="#dcdbde"/><path d="M203.925 44.141a30.142 30.142 0 0 0-21.312-8.828h-14.546c-7.313 0-11.674 8.15-7.618 14.236l25.821 38.73 52.966 17.655 38.368-13.484a20.127 20.127 0 0 0 14.598-19.352v-.002c0-11.116-9.011-20.127-20.127-20.127h-46.837a30.15 30.15 0 0 1-21.313-8.828z" fill="#625d6b"/><path d="M105.931 70.623L38.787 85.544a26.483 26.483 0 0 0-17.942 14.008L8.828 123.589h194.207l8.828-26.483z" fill="#dcdbde"/><path d="M229.526 114.761a9.024 9.024 0 0 1-2.37-.319L68.259 70.304c-4.698-1.311-7.448-6.173-6.146-10.871 1.302-4.698 6.164-7.414 10.871-6.146l158.897 44.138c4.698 1.311 7.448 6.173 6.146 10.871-1.087 3.905-4.639 6.465-8.501 6.465z" fill="#a7a5ac"/><path d="M8.828 167.727a8.829 8.829 0 0 0 8.828 8.828H291.31c70.621 0 158.897-8.828 207.448-70.621V88.279h-198.62l-105.931 35.31H8.828z" fill="#625d6b"/><path d="M13.241 141.244h253.941a79.442 79.442 0 0 0 29.506-5.683l59.864-23.946a79.446 79.446 0 0 1 29.506-5.683h112.7c7.313 0 13.241-5.929 13.241-13.241 0-7.313-5.929-13.241-13.241-13.241H296.48a79.449 79.449 0 0 0-27.15 4.783l-83.95 30.528H13.241C5.929 114.761 0 120.69 0 128.003c0 7.312 5.929 13.241 13.241 13.241z" fill="#ededee"/><path d="M459.034 70.623a8.829 8.829 0 0 0 8.828 8.828h27.586l-6.395-17.053c-.078-.21-.203-.395-.287-.602h-20.905a8.828 8.828 0 0 0-8.827 8.827z" fill="#625d6b"/></svg>