<svg xmlns="http://www.w3.org/2000/svg" width="512.002" height="361.932"><path fill="#cac9cd" d="M318.724 65.742l-26.481-52.963 15.79-7.895 26.481 52.963z"/><path d="M445.795 317.794c-12.189 0-22.069-9.88-22.069-22.069 0-12.189 9.88-22.069 22.069-22.069 12.189 0 22.069 9.88 22.069 22.069 0 12.188-9.88 22.069-22.069 22.069z" fill="#b9b7bd"/><path d="M445.795 229.518c-36.565 0-66.207 29.642-66.207 66.207s29.642 66.207 66.207 66.207 66.207-29.642 66.207-66.207-29.642-66.207-66.207-66.207zm0 105.931c-21.939 0-39.724-17.785-39.724-39.724 0-21.939 17.785-39.724 39.724-39.724 21.939 0 39.724 17.785 39.724 39.724 0 21.938-17.785 39.724-39.724 39.724z" fill="#504b5a"/><path d="M445.528 304c-3 0-5.922-1.526-7.577-4.28l-43.423-72.276a8.833 8.833 0 0 1 3.026-12.116c4.181-2.517 9.603-1.146 12.113 3.021l43.423 72.276A8.833 8.833 0 0 1 445.528 304z" fill="#dcdbde"/><path d="M386.576 251.035h82.831a8.757 8.757 0 0 0 7.854-4.883l4.577-9.274c2.411-4.885 1.191-10.718-2.906-14.308-9.674-8.48-31.27-22.42-72.862-28.362z" fill="#00aadc"/><path d="M83.864 229.518c-36.565 0-66.207 29.642-66.207 66.207s29.642 66.207 66.207 66.207 66.207-29.642 66.207-66.207-29.642-66.207-66.207-66.207zm0 105.931c-21.939 0-39.724-17.785-39.724-39.724 0-21.939 17.785-39.724 39.724-39.724 21.939 0 39.724 17.785 39.724 39.724 0 21.938-17.785 39.724-39.724 39.724z" fill="#504b5a"/><path d="M172.14 317.794H83.864c-12.189 0-22.069-9.88-22.069-22.069 0-12.189 9.88-22.069 22.069-22.069h88.276c12.189 0 22.069 9.88 22.069 22.069 0 12.188-9.88 22.069-22.069 22.069z" fill="#dcdbde"/><path d="M326.623 291.311l15.272-83.991a61.787 61.787 0 0 0-.849-26.041L317.795 79.45h26.483l44.138 114.759-26.483 97.103h-35.31z" fill="#00aadc"/><path d="M380.228 288.453l37.441-81.123a26.479 26.479 0 0 0-1.703-25.315l-50.377-79.165a7.552 7.552 0 0 0-9.748-2.7l-.009.004a15.361 15.361 0 0 0-7.843 18.152l14.546 48.487a114.757 114.757 0 0 1 2.611 55.481l-9.204 46.017a17.652 17.652 0 0 1-17.311 14.193h-91.457l17.655-97.103-17.655-26.483-114.759-8.828-67.453 7.495a13.487 13.487 0 1 0-8.047 22.937l13.706 13.706S0 211.863 0 256.001v8.828a8.829 8.829 0 0 0 8.828 8.828h133.929c4.682 0 9.173 1.86 12.484 5.171l24.968 24.968a17.654 17.654 0 0 0 12.484 5.171h155.474a35.312 35.312 0 0 0 32.061-20.514z" fill="#64bef0"/><path d="M264.83 185.38l-17.655-26.483-114.759-8.828-67.453 7.495a13.484 13.484 0 0 0-8.046 22.937l13.705 13.706h192.601z" fill="#00aadc"/><path d="M370.761 88.276h-44.138c-9.751 0-17.655-7.904-17.655-17.655 0-9.751 7.904-17.655 17.655-17.655h44.138z" fill="#64bef0"/><path d="M326.623 79.449a8.796 8.796 0 0 1-6.241-2.586l-6.242-6.241h-22.828a8.826 8.826 0 0 1-8.828-8.828 8.826 8.826 0 0 1 8.828-8.828h22.827c4.647 0 9.198 1.884 12.483 5.173l6.241 6.241a8.825 8.825 0 0 1 0 12.483 8.795 8.795 0 0 1-6.24 2.586z" fill="#625d6b"/><path d="M370.761 88.276h-8.828v-35.31h8.828a8.829 8.829 0 0 1 8.828 8.828v17.655a8.829 8.829 0 0 1-8.828 8.827z" fill="#dcdbde"/><circle cx="83.864" cy="295.725" r="22.069" fill="#ededee"/><path d="M114.761 152.742a11.5 11.5 0 0 0 5.121 9.569l30.054 20.035a70.618 70.618 0 0 0 39.174 11.861h73.781c5.57 0 9.749-5.097 8.657-10.559l-1.038-5.194c-3.303-16.504-17.794-28.385-34.626-28.385H188.51a97.048 97.048 0 0 1-23.552-2.9l-12.115-3.029a97.091 97.091 0 0 0-23.552-2.9h-3.029c-6.353.002-11.501 5.151-11.501 11.502z" fill="#625d6b"/><path d="M162.43 240.111l26.483 35.31a17.655 17.655 0 0 0 14.124 7.062h44.138l12.84-70.621h-83.46c-14.55.001-22.855 16.61-14.125 28.249z" fill="#00aadc"/><path d="M300.14 35.311h-8.828a8.829 8.829 0 0 1-8.828-8.828V8.828A8.829 8.829 0 0 1 291.312 0h8.828c9.751 0 17.655 7.904 17.655 17.655 0 9.752-7.904 17.656-17.655 17.656z" fill="#dcdbde"/></svg>