<svg xmlns="http://www.w3.org/2000/svg" width="512" height="264.828"><path fill="#504b5a" d="M344.276 44.138h35.31l17.655 35.31-35.31 17.656z"/><ellipse cx="414.897" cy="57.38" rx="17.655" ry="22.069" fill="#dcdbde"/><path d="M379.586 26.483h22.069c7.313 0 13.241 5.929 13.241 13.241v35.31c0 7.313-5.929 13.241-13.241 13.241h-4.414z" fill="#ff6464"/><path fill="#736f7b" d="M185.379 132.414l-35.31 26.483-8.828 26.483 70.621 26.482h70.621l17.655-26.482h8.828l17.655-61.794V79.448H158.897z"/><path d="M216.276 105.931h105.931c7.313 0 13.241-5.929 13.241-13.241 0-7.313-5.929-13.241-13.241-13.241H216.276c-7.313 0-13.241 5.929-13.241 13.241-.001 7.312 5.928 13.241 13.241 13.241z" fill="#504b5a"/><path d="M264.828 105.931l5.763 17.289a17.654 17.654 0 0 0 12.467 11.545l25.908 6.476 13.241-35.31z" fill="#625d6b"/><path d="M361.588 59.437l7.761 39.346a17.65 17.65 0 0 1-2.632 13.209l-43.976 65.964a17.654 17.654 0 0 1-13.858 7.842l-8.745.413v-18.487l26.483-79.448z" fill="#d2555a"/><path d="M79.448 105.931C35.571 105.931 0 141.502 0 185.38s35.571 79.448 79.448 79.448c43.877 0 79.448-35.571 79.448-79.448 0-43.877-35.57-79.449-79.448-79.449zm0 132.414c-29.252 0-52.966-23.713-52.966-52.966 0-29.252 23.713-52.966 52.966-52.966s52.966 23.713 52.966 52.966-23.713 52.966-52.966 52.966z" fill="#504b5a"/><circle cx="79.448" cy="185.38" r="35.31" fill="#a7a5ac"/><g transform="translate(0 -123.586)" fill="#504b5a"><circle cx="79.448" cy="308.966" r="17.655"/><path d="M432.552 229.517c-43.878 0-79.448 35.571-79.448 79.448 0 43.877 35.571 79.448 79.448 79.448 43.877 0 79.448-35.57 79.448-79.447s-35.571-79.449-79.448-79.449zm0 132.414c-29.252 0-52.966-23.713-52.966-52.966 0-29.252 23.713-52.966 52.966-52.966 29.252 0 52.966 23.713 52.966 52.966-.001 29.253-23.714 52.966-52.966 52.966z"/></g><circle cx="432.552" cy="185.38" r="35.31" fill="#a7a5ac"/><circle cx="432.552" cy="185.38" r="17.655" fill="#504b5a"/><g fill="#625d6b"><path d="M432.552 194.212a8.846 8.846 0 0 1-8.337-5.913L365.526 20.613a4.412 4.412 0 0 0-4.163-2.957h-17.087a8.826 8.826 0 0 1-8.828-8.828A8.826 8.826 0 0 1 344.276 0h17.086a22.094 22.094 0 0 1 20.828 14.772l58.698 167.69c1.603 4.604-.819 9.638-5.422 11.25a8.89 8.89 0 0 1-2.914.5zM79.457 194.207a8.836 8.836 0 0 1-8.025-5.129 8.824 8.824 0 0 1 4.319-11.715l114.759-52.966c4.431-2.039 9.681-.104 11.715 4.319a8.824 8.824 0 0 1-4.319 11.715L83.147 193.397a8.803 8.803 0 0 1-3.69.81zM247.172 79.448l-65.324 21.774a44.65 44.65 0 0 1-28.248 0L76.511 75.526c-8.128-2.709-12.521-11.496-9.812-19.624a15.514 15.514 0 0 1 16.262-10.531l164.212 16.422v17.655z"/></g><path d="M361.588 59.437c2.516 15.096-9.126 28.839-24.43 28.839h-82.153c-13.715 0-22.635-14.433-16.502-26.7l.039-.076a18.445 18.445 0 0 1 13.696-9.984l81.154-12.486c13.4-2.062 25.967 7.034 28.196 20.407z" fill="#ff6464"/><path d="M274.492 220.69h-49.827c-9.56 0-18.94-1.703-27.896-5.056l-58.63-21.987c-4.561-1.716-6.871-6.802-5.164-11.367 1.707-4.574 6.802-6.858 11.371-5.169l58.63 21.987a61.514 61.514 0 0 0 21.689 3.935h49.827c9.276 0 16.819-7.548 16.819-16.823 0-7.25-4.621-13.664-11.509-15.957l-35.423-11.81a8.83 8.83 0 0 1-5.578-11.168 8.805 8.805 0 0 1 11.164-5.582l35.423 11.81a34.437 34.437 0 0 1 23.578 32.708c0 19.013-15.466 34.479-34.474 34.479z" fill="#625d6b"/><circle cx="233.931" cy="172.138" r="22.069" fill="#504b5a"/><circle cx="225.103" cy="119.173" r="13.241" fill="#a7a5ac"/><circle cx="337.655" cy="64" r="15.448" fill="#d2555a"/></svg>