<svg xmlns="http://www.w3.org/2000/svg" width="512" height="162.133"><path fill="#504b5a" d="M102.4 127.999h59.733v25.6H102.4z"/><g transform="translate(0 -174.934)" fill="#625d6b"><circle cx="102.4" cy="320" r="17.067"/><circle cx="162.133" cy="320" r="17.067"/></g><path fill="#504b5a" d="M349.867 127.999H409.6v25.6h-59.733z"/><g transform="translate(0 -174.934)" fill="#625d6b"><circle cx="349.867" cy="320" r="17.067"/><circle cx="409.6" cy="320" r="17.067"/></g><g fill="#dcdbde"><path d="M329.713 151.241l11.62-23.242H170.667l11.62 23.242a4.269 4.269 0 0 0 3.817 2.358h139.793a4.267 4.267 0 0 0 3.816-2.358zM93.867 127.999H0v17.067a8.533 8.533 0 0 0 8.533 8.533H78.43a4.27 4.27 0 0 0 3.817-2.358zM418.133 127.999l11.62 23.242a4.269 4.269 0 0 0 3.817 2.358h64.719c4.128 0 6.591-4.602 4.301-8.036l-11.709-17.564z"/></g><path d="M494.933 136.533H0v-128A8.533 8.533 0 0 1 8.533 0H358.4C426.667 0 512 68.268 512 102.4v17.066c0 9.426-7.641 17.067-17.067 17.067z" fill="#ededee"/><g fill="#64bef0"><path d="M469.326 76.795c-.022 0-.035.004-.058.004h.065zM427.732 66.65l-55.134-36.752a25.596 25.596 0 0 0-14.198-4.299H25.6a8.533 8.533 0 0 0-8.533 8.533v34.134a8.533 8.533 0 0 0 8.533 8.533h399.06c5.481 0 7.633-7.109 3.072-10.149z"/></g><g fill="#625d6b"><path d="M81.067 68.266H38.4a4.267 4.267 0 0 1-4.267-4.267v-25.6a4.267 4.267 0 0 1 4.267-4.267h42.667a4.267 4.267 0 0 1 4.267 4.267v25.6a4.268 4.268 0 0 1-4.267 4.267zM149.333 68.266h-42.667a4.267 4.267 0 0 1-4.267-4.267v-25.6a4.267 4.267 0 0 1 4.267-4.267h42.667a4.267 4.267 0 0 1 4.267 4.267v25.6a4.266 4.266 0 0 1-4.267 4.267zM217.6 68.266h-42.667a4.267 4.267 0 0 1-4.267-4.267v-25.6a4.267 4.267 0 0 1 4.267-4.267H217.6a4.267 4.267 0 0 1 4.267 4.267v25.6a4.267 4.267 0 0 1-4.267 4.267zM285.867 68.266H243.2a4.267 4.267 0 0 1-4.267-4.267v-25.6a4.267 4.267 0 0 1 4.267-4.267h42.667a4.267 4.267 0 0 1 4.267 4.267v25.6a4.268 4.268 0 0 1-4.267 4.267zM354.133 68.266h-42.667a4.267 4.267 0 0 1-4.267-4.267v-25.6a4.267 4.267 0 0 1 4.267-4.267h42.667a4.267 4.267 0 0 1 4.267 4.267v25.6a4.266 4.266 0 0 1-4.267 4.267z"/></g><g fill="#dcdbde"><path d="M460.8 110.933H25.6a8.533 8.533 0 0 1 0-17.066h435.2a8.533 8.533 0 0 1 0 17.066zM486.4 102.399a8.533 8.533 0 0 0 8.533 8.533H512v-8.533c0-2.649-.571-5.522-1.55-8.533h-15.517a8.534 8.534 0 0 0-8.533 8.533z"/></g><path d="M431.65 20.552c-.571-.293-1.154-.599-1.713-.883a226.119 226.119 0 0 0-5.274-2.602h-32.156c-4.911 0-6.755 6.429-2.591 9.031l24.761 15.475c18.889 11.806 45.854 26.514 79.739 26.666-14.763-16.887-37.459-34.555-62.766-47.687z" fill="#625d6b"/></svg>