<svg xmlns="http://www.w3.org/2000/svg" width="512" height="475.431"><path d="M383.991 136.76c-4.152 0-7.911-2.843-8.893-7.063l-16.831-72.009c-1.402-5.831-.803-12.112 1.696-17.639l7.178-15.862c.822-1.808.169-3.272-.286-3.986-.464-.714-1.536-1.915-3.518-1.915h-6.767a9.14 9.14 0 0 1-9.143-9.143A9.14 9.14 0 0 1 356.57 0h6.768c7.67 0 14.733 3.848 18.883 10.295a22.397 22.397 0 0 1 1.581 21.442l-7.178 15.843a9.177 9.177 0 0 0-.562 5.897l16.839 72.058c1.152 4.915-1.902 9.834-6.822 10.982a8.9 8.9 0 0 1-2.088.243z" fill="#736f7b"/><path fill="#625d6b" d="M118.857 384.001h219.429v27.429H118.857z"/><circle cx="59.429" cy="416.001" r="32" fill="#736f7b"/><g fill="#504b5a"><path d="M59.429 356.573C26.607 356.573 0 383.18 0 416.001s26.607 59.429 59.429 59.429 59.429-26.607 59.429-59.429-26.608-59.428-59.429-59.428zm0 91.428c-17.673 0-32-14.327-32-32 0-17.673 14.327-32 32-32 17.673 0 32 14.327 32 32 0 17.673-14.327 32-32 32zM452.571 356.573c-32.822 0-59.429 26.607-59.429 59.429s26.607 59.429 59.429 59.429S512 448.823 512 416.001s-26.607-59.428-59.429-59.428zm0 91.428c-17.673 0-32-14.327-32-32 0-17.673 14.327-32 32-32 17.673 0 32 14.327 32 32 0 17.673-14.326 32-32 32z"/></g><path d="M59.429 338.287c-21.562 0-42.33 9.072-56.991 24.883-3.429 3.701-3.215 9.487.491 12.92 3.696 3.424 9.482 3.215 12.92-.491 8.311-8.966 19.194-15.098 30.991-17.669 6.898-1.503 13.877 2.246 16.251 8.895l19.194 53.747L128 425.144a9.14 9.14 0 0 0 9.143-9.143c0-42.852-34.866-77.714-77.714-77.714z" fill="#96e178"/><path d="M309.15 429.524H59.429c-7.574 0-13.714-6.141-13.714-13.714 0-7.574 6.141-13.714 13.714-13.714h249.723a9.14 9.14 0 0 0 7.083-3.362l93.712-114.83 21.25 17.339-93.712 114.832a36.579 36.579 0 0 1-28.335 13.449z" fill="#8ccd73"/><path d="M439.162 419.241l-66.384-279.186a9.11 9.11 0 0 1 6.734-10.976l8.965-2.151a9.108 9.108 0 0 1 10.984 6.738l66.405 279.274c1.735 7.354-2.803 14.727-10.151 16.489-7.387 1.773-14.809-2.795-16.553-10.188z" fill="#96e178"/><path d="M352 27.43c-7.543 0-13.714-6.171-13.714-13.714S344.457.002 352 .002s13.714 6.171 13.714 13.714c0 7.542-6.171 13.714-13.714 13.714z" fill="#625d6b"/></svg>