<svg xmlns="http://www.w3.org/2000/svg" width="428.063" height="512.002"><path fill="#ededee" d="M83.838 384h158.694l.202 30.897h152.263L238.307 11.034z"/><path d="M423.372 466.207L243.16 21.716l-.34-17.355A4.447 4.447 0 0 0 238.374 0h-.02a4.449 4.449 0 0 0-4.447 4.448v375.138H79.424a4.414 4.414 0 1 0 0 8.828h154.483v61.793h17.655l-7.918-403.822L415.2 469.518a4.407 4.407 0 0 0 4.086 2.759c.552 0 1.112-.104 1.655-.328a4.4 4.4 0 0 0 2.43-5.742z" fill="#cac9cd"/><path d="M147.303 412.756a8.828 8.828 0 0 0-8.564-6.687H97.079a4.414 4.414 0 1 0 0 8.828h1.89l-15.132 52.966h70.62V441.38z" fill="#736f7b"/><path d="M127.976 467.862l26.483-26.483H314.87c4.682 0 9.173 1.86 12.484 5.171l21.31 21.312z" fill="#ff9164"/><path d="M2.77 495.965l16.246-16.245a70.62 70.62 0 0 1 49.937-20.685h352.81c5.602 0 8.407 6.772 4.447 10.733l-27.912 27.912a48.896 48.896 0 0 1-34.574 14.322H9.412C1.044 512-3.148 501.881 2.77 495.965z" fill="#ffb47d"/><path d="M4.39 494.345l-1.62 1.62C-3.147 501.882 1.044 512 9.412 512h354.31a48.889 48.889 0 0 0 34.575-14.322l3.334-3.334H4.39z" fill="#ff9164"/><path d="M110.32 414.897h26.484l5.055 20.22c1.917 7.666-3.881 15.091-11.783 15.091h-28.583z" fill="#625d6b"/></svg>