<svg xmlns="http://www.w3.org/2000/svg" width="512.001" height="194.205"><path d="M489.8 85.129c-16.628-10.241-70.259-23.335-145.52-23.335l-39.757-46.38A44.14 44.14 0 0 0 271.013.001H85.247A35.31 35.31 0 0 0 60.28 10.345L15.75 54.88a35.32 35.32 0 0 0-9.287 16.4L.005 97.104l132.415 61.792h370.755v-49.903c0-9.76-5.067-18.745-13.376-23.864z" fill="#87d7ff"/><path d="M304.523 15.413A44.14 44.14 0 0 0 271.013 0H85.247A35.31 35.31 0 0 0 60.28 10.344L17.661 52.965h23.083c8.142 0 16.278.45 24.37 1.35l67.3 7.478h211.864z" fill="#64bef0"/><path d="M290.717 61.792H144.148a212.15 212.15 0 0 1-23.396-1.295l-45.946-5.106c-9.475-1.053-14.068-12.14-8.112-19.585l16.282-20.353a17.654 17.654 0 0 1 13.786-6.626h150.97a17.656 17.656 0 0 1 13.561 6.351l32.815 39.374c2.396 2.876.351 7.24-3.39 7.24z" fill="#625d6b"/><path d="M503.174 114.757c0-17.655-26.482-35.31-150.067-35.31H8.832a8.827 8.827 0 0 0-8.827 8.827l-.004 44.138 167.728 17.655h335.445z" fill="#64bef0"/><path d="M503.174 141.24H89.245l-78.5-17.443c-4.715-1.035-9.474 1.935-10.535 6.702-1.052 4.759 1.95 9.474 6.707 10.53l79.447 17.655a8.66 8.66 0 0 0 1.913.211h414.894a8.826 8.826 0 0 0 8.828-8.827 8.824 8.824 0 0 0-8.825-8.828z" fill="#00aadc"/><circle cx="75.035" cy="145.651" r="40.46" fill="#ededee"/><path d="M75.035 194.205c-26.773 0-48.55-21.779-48.55-48.551 0-26.773 21.778-48.551 48.55-48.551s48.551 21.779 48.551 48.551c0 26.772-21.778 48.551-48.55 48.551zm0-79.448c-17.039 0-30.896 13.857-30.896 30.896s13.857 30.896 30.896 30.896c17.04 0 30.896-13.857 30.896-30.896s-13.857-30.896-30.896-30.896z" fill="#504b5a"/><circle cx="75.035" cy="145.651" r="17.655" fill="#dcdbde"/><g fill="#00aadc"><path d="M353.101 123.585h-211.86a8.828 8.828 0 0 1 0-17.654h211.86a8.827 8.827 0 0 1 0 17.654zM503.174 123.585h-8.827a8.828 8.828 0 0 1 0-17.654h8.827a8.827 8.827 0 0 1 0 17.654z"/></g><path fill="#504b5a" d="M194.206 8.825h17.655V61.79h-17.655z"/><path d="M493.698 88.275h-8.18a8.828 8.828 0 0 0 0 17.654h17.26c-.766-6.865-3.963-13.076-9.08-17.654z" fill="#ededee"/><path d="M304.523 15.413a44.08 44.08 0 0 0-7.036-6.585h-14.406c-3.742 0-5.786 4.364-3.39 7.24l32.812 39.374a17.654 17.654 0 0 0 13.562 6.352h18.213z" fill="#625d6b"/><path fill="#504b5a" d="M114.76 8.827L90.6 57.147l24.79 2.754 17.024-51.074z"/><path d="M6.462 71.278l-2.044 8.169h22.065a8.828 8.828 0 0 0 0-17.654h-16.06c-1.757 2.948-3.12 6.127-3.96 9.485z" fill="#ff6464"/><circle cx="419.307" cy="145.651" r="40.46" fill="#ededee"/><path d="M419.307 194.205c-26.773 0-48.55-21.779-48.55-48.551 0-26.773 21.778-48.551 48.55-48.551s48.551 21.779 48.551 48.551c0 26.772-21.778 48.551-48.55 48.551zm0-79.448c-17.039 0-30.896 13.857-30.896 30.896s13.857 30.896 30.896 30.896c17.04 0 30.896-13.857 30.896-30.896s-13.857-30.896-30.896-30.896z" fill="#504b5a"/><circle cx="419.307" cy="145.651" r="17.655" fill="#dcdbde"/></svg>