<svg xmlns="http://www.w3.org/2000/svg" width="273.655" height="512"><path d="M187.497 176.615l43.684-150.132h28.681V8.828h-28.681c-7.794 0-14.767 5.228-16.957 12.724L170.3 172.525c5.704 1.463 11.444 2.805 17.197 4.09z" fill="#dcdbde"/><path d="M163.311 335.448h-26.483V282.31c0-6.972.971-13.909 2.887-20.611l35.551-124.435a8.83 8.83 0 0 1 10.913-6.063l8.49 2.425c4.687 1.34 7.402 6.226 6.062 10.913l-35.554 124.447a48.503 48.503 0 0 0-1.866 13.324z" fill="#cac9cd"/><circle cx="105.931" cy="406.069" r="105.931" fill="#625d6b"/><circle cx="105.931" cy="406.069" r="79.448" fill="#504b5a"/><circle cx="105.931" cy="406.069" r="44.138" fill="#625d6b"/><g fill="#dcdbde"><path d="M105.931 375.172a4.411 4.411 0 0 1-4.414-4.414v-26.483a4.411 4.411 0 0 1 4.414-4.414 4.411 4.411 0 0 1 4.414 4.414v26.483a4.411 4.411 0 0 1-4.414 4.414zM105.931 472.276a4.411 4.411 0 0 1-4.414-4.414v-26.483a4.411 4.411 0 0 1 4.414-4.414 4.411 4.411 0 0 1 4.414 4.414v26.483a4.411 4.411 0 0 1-4.414 4.414zM52.414 441.379a4.405 4.405 0 0 1-3.819-2.207 4.408 4.408 0 0 1 1.612-6.03l22.94-13.241a4.41 4.41 0 0 1 6.026 1.617 4.408 4.408 0 0 1-1.612 6.03l-22.94 13.241a4.411 4.411 0 0 1-2.207.59zM136.509 392.828a4.405 4.405 0 0 1-3.819-2.207 4.408 4.408 0 0 1 1.612-6.03l22.94-13.241c2.103-1.216 4.819-.495 6.026 1.617a4.408 4.408 0 0 1-1.612 6.03l-22.94 13.241c-.698.4-1.457.59-2.207.59zM159.449 441.379c-.75 0-1.508-.19-2.207-.59l-22.94-13.241a4.408 4.408 0 0 1-1.612-6.03c1.216-2.108 3.923-2.824 6.026-1.617l22.94 13.241a4.408 4.408 0 0 1 1.612 6.03 4.405 4.405 0 0 1-3.819 2.207zM75.354 392.828c-.75 0-1.508-.19-2.207-.59l-22.94-13.241a4.408 4.408 0 0 1-1.612-6.03c1.216-2.108 3.923-2.819 6.026-1.617l22.94 13.241a4.408 4.408 0 0 1 1.612 6.03 4.407 4.407 0 0 1-3.819 2.207z"/></g><circle cx="105.931" cy="406.069" r="17.655" fill="#504b5a"/><circle cx="260.414" cy="13.241" r="13.241" fill="#625d6b"/></svg>