<svg xmlns="http://www.w3.org/2000/svg" width="512.001" height="256"><path d="M503.172 194.207v-63.081a26.482 26.482 0 0 0-14.639-23.687l-38.326-19.164-57.368-71.711A44.144 44.144 0 0 0 358.372 0H26.483C16.732 0 8.828 7.904 8.828 17.655v180.966z" fill="#ffdc5a"/><path d="M8.828 176.552h494.345a8.829 8.829 0 0 1 8.828 8.828v17.655a8.829 8.829 0 0 1-8.828 8.828H8.828A8.829 8.829 0 0 1 0 203.035V185.38a8.828 8.828 0 0 1 8.828-8.828z" fill="#ffc84b"/><circle cx="83.862" cy="207.448" r="40.46" fill="#ededee"/><path d="M83.862 256c-26.773 0-48.552-21.779-48.552-48.552s21.779-48.552 48.552-48.552 48.552 21.779 48.552 48.552S110.635 256 83.862 256zm0-79.448c-17.039 0-30.897 13.857-30.897 30.897s13.857 30.897 30.897 30.897 30.897-13.857 30.897-30.897-13.857-30.897-30.897-30.897z" fill="#504b5a"/><circle cx="83.862" cy="207.448" r="17.655" fill="#dcdbde"/><circle cx="419.31" cy="207.448" r="40.46" fill="#ededee"/><path d="M419.305 256c-26.773 0-48.552-21.779-48.552-48.552s21.779-48.552 48.552-48.552 48.552 21.779 48.552 48.552S446.078 256 419.305 256zm0-79.448c-17.039 0-30.897 13.857-30.897 30.897s13.857 30.897 30.897 30.897 30.897-13.857 30.897-30.897-13.858-30.897-30.897-30.897z" fill="#504b5a"/><circle cx="419.31" cy="207.448" r="17.655" fill="#dcdbde"/><g fill="#625d6b"><path d="M393.71 17.655h-12.359c-4.364 0-6.856 4.983-4.237 8.474l41.313 55.084a17.655 17.655 0 0 0 14.124 7.062h17.655zM358.4 24.717l42.372 56.497c2.183 2.91.106 7.062-3.531 7.062h-97.103a8.829 8.829 0 0 1-8.828-8.828V26.482a8.829 8.829 0 0 1 8.828-8.828h44.138a17.659 17.659 0 0 1 14.124 7.063zM44.138 88.276h220.69a8.829 8.829 0 0 0 8.828-8.828V26.482a8.829 8.829 0 0 0-8.828-8.828H44.138a8.829 8.829 0 0 0-8.828 8.828v52.966a8.829 8.829 0 0 0 8.828 8.828z"/></g><path fill="#504b5a" d="M141.241 17.655h17.655v70.621h-17.655z"/><path d="M450.207 132.414H26.483a8.829 8.829 0 0 1 0-17.656h423.724a8.829 8.829 0 0 1 8.828 8.828 8.83 8.83 0 0 1-8.828 8.828z" fill="#ffc84b"/><path d="M17.655 158.897H8.828V97.104h8.828a8.829 8.829 0 0 1 8.828 8.828v44.138a8.83 8.83 0 0 1-8.829 8.827z" fill="#ff6464"/><path d="M476.69 123.586v8.828a8.829 8.829 0 0 0 8.828 8.828h17.655v-10.115c0-6.057-2.094-11.779-5.707-16.367h-11.948a8.826 8.826 0 0 0-8.828 8.826z" fill="#ededee"/></svg>