<svg xmlns="http://www.w3.org/2000/svg" width="512" height="211.863"><path fill="#504b5a" d="M97.103 176.553h61.793v26.483H97.103z"/><g transform="translate(0 -150.068)" fill="#625d6b"><circle cx="97.103" cy="344.276" r="17.655"/><circle cx="158.897" cy="344.276" r="17.655"/></g><path fill="#504b5a" d="M353.103 176.553h61.793v26.483h-61.793z"/><g transform="translate(0 -150.068)" fill="#625d6b"><circle cx="353.103" cy="344.276" r="17.655"/><circle cx="414.897" cy="344.276" r="17.655"/></g><path d="M473.346 17.656H38.654c-7.833 0-14.702 5.174-16.993 12.664-11.533 37.707-11.533 78.205 0 115.912 2.291 7.491 9.16 12.665 16.993 12.665h434.692c7.833 0 14.702-5.174 16.993-12.664 11.533-37.707 11.533-78.205 0-115.912-2.29-7.491-9.159-12.665-16.993-12.665z" fill="#ffdc5a"/><path d="M35.31 18.206c-6.361 1.254-11.699 5.736-13.651 12.116-11.532 37.707-11.532 78.205 0 115.912 1.952 6.38 7.289 10.862 13.651 12.116z" fill="#96e178"/><path d="M35.31 158.348c1.107.218 2.183.549 3.343.549h14.312V17.656H38.654c-1.162 0-2.237.331-3.343.55l-.001 140.142z" fill="#ededee"/><path d="M476.69 158.348c6.361-1.254 11.699-5.736 13.651-12.116 11.532-37.707 11.532-78.205 0-115.912-1.952-6.38-7.289-10.862-13.651-12.116z" fill="#96e178"/><path d="M476.69 18.206c-1.107-.218-2.183-.55-3.343-.55h-14.312v141.241h14.312c1.162 0 2.237-.331 3.343-.549z" fill="#ededee"/><g fill="#ffc84b"><path d="M423.724 158.898h-17.655V13.242a4.414 4.414 0 0 1 4.414-4.414h8.828a4.414 4.414 0 0 1 4.414 4.414v145.656zM105.931 158.898H88.276V13.242a4.414 4.414 0 0 1 4.414-4.414h8.828a4.414 4.414 0 0 1 4.414 4.414v145.656zM300.138 17.656h-88.276V8.828A8.829 8.829 0 0 1 220.69 0h70.621a8.829 8.829 0 0 1 8.828 8.828v8.828z"/></g><path d="M4.414 158.898h503.172a4.414 4.414 0 0 1 4.414 4.414v8.828a4.414 4.414 0 0 1-4.414 4.414H4.414A4.414 4.414 0 0 1 0 172.14v-8.828a4.414 4.414 0 0 1 4.414-4.414z" fill="#96e178"/><g fill="#8ccd73"><path d="M114.759 158.898h-35.31v-13.241a4.414 4.414 0 0 1 4.414-4.414h26.483a4.414 4.414 0 0 1 4.414 4.414v13.241zM432.552 158.898h-35.31v-13.241a4.414 4.414 0 0 1 4.414-4.414h26.483a4.414 4.414 0 0 1 4.414 4.414v13.241z"/></g><path d="M269.241 35.311h-26.483a4.414 4.414 0 0 0-4.414 4.414v119.172h35.31V39.725a4.413 4.413 0 0 0-4.413-4.414z" fill="#ffc84b"/></svg>