<svg xmlns="http://www.w3.org/2000/svg" width="512.002" height="252.765"><path d="M256.002 85.685a4.3 4.3 0 0 1-1.916-.452l-68.548-34.274a4.294 4.294 0 0 1-2.368-3.832c0-1.623.92-3.104 2.368-3.832l68.548-34.274a4.285 4.285 0 0 1 3.832 0l68.548 34.274a4.294 4.294 0 0 1 2.368 3.832c0 1.623-.92 3.104-2.368 3.832l-68.548 34.274a4.284 4.284 0 0 1-1.916.452zm-58.968-38.558L256 76.61l58.967-29.483L256 17.644z" fill="#ffc84b"/><path d="M500.204 244.202H11.799a4.284 4.284 0 0 1-4.284-4.284v-8.569a4.284 4.284 0 0 1 4.284-4.284h488.404a4.284 4.284 0 0 1 4.284 4.284v8.569a4.282 4.282 0 0 1-4.283 4.284z" fill="#504b5a"/><g transform="translate(0 -129.618)" fill="#625d6b"><circle cx="118.91" cy="365.246" r="17.137"/><circle cx="187.447" cy="365.246" r="17.137"/><circle cx="324.543" cy="365.246" r="17.137"/><circle cx="393.091" cy="365.246" r="17.137"/></g><path d="M510.979 158.773l-15.06-60.235H16.085l-15.06 60.235a34.26 34.26 0 0 0 0 16.625l13.436 53.745a8.57 8.57 0 0 0 8.313 6.491h83.279l4.284-8.569h85.685l4.284 8.569h111.39l4.285-8.569h85.685l4.284 8.569h83.279a8.569 8.569 0 0 0 8.313-6.491l13.436-53.745a34.26 34.26 0 0 0 .002-16.625z" fill="#ffc84b"/><path fill="#ff6464" d="M510.914 175.654H1.089l8.568 34.274h492.689z"/><path d="M495.92 89.969H16.084a8.569 8.569 0 0 0-8.568 8.568v4.284a4.284 4.284 0 0 0 4.284 4.284h488.404a4.284 4.284 0 0 0 4.284-4.284v-4.284a8.57 8.57 0 0 0-8.568-8.568z" fill="#ffdc5a"/><path d="M474.498 98.538H37.505a4.284 4.284 0 0 1-4.284-4.284v-8.568a4.284 4.284 0 0 1 4.284-4.284h436.993a4.284 4.284 0 0 1 4.284 4.284v8.568a4.284 4.284 0 0 1-4.284 4.284z" fill="#a7a5ac"/><path d="M268.854 89.969h-25.706a4.284 4.284 0 0 1-4.284-4.284v-8.569a4.284 4.284 0 0 1 4.284-4.284h25.706a4.284 4.284 0 0 1 4.284 4.284v8.569a4.283 4.283 0 0 1-4.284 4.284z" fill="#736f7b"/><path d="M277.423 235.634H234.58a8.57 8.57 0 0 1-8.57-8.569V124.243a8.569 8.569 0 0 1 8.57-8.568h42.842a8.569 8.569 0 0 1 8.568 8.568v102.822a8.569 8.569 0 0 1-8.568 8.569z" fill="#ffdc5a"/><g fill="#625d6b"><path d="M247.433 175.654h-8.568a4.284 4.284 0 0 1-4.284-4.284v-42.842a4.284 4.284 0 0 1 4.284-4.284h8.568a4.284 4.284 0 0 1 4.284 4.284v42.842a4.284 4.284 0 0 1-4.284 4.284zM273.139 175.654h-8.57a4.284 4.284 0 0 1-4.283-4.284v-42.842a4.284 4.284 0 0 1 4.284-4.284h8.569a4.284 4.284 0 0 1 4.284 4.284v42.842a4.285 4.285 0 0 1-4.284 4.284z"/></g><path d="M461.646 235.634h-42.842a8.57 8.57 0 0 1-8.57-8.569V124.243a8.569 8.569 0 0 1 8.57-8.568h42.842a8.569 8.569 0 0 1 8.568 8.568v102.822a8.57 8.57 0 0 1-8.568 8.569z" fill="#ffdc5a"/><g fill="#625d6b"><path d="M431.656 175.654h-8.568a4.284 4.284 0 0 1-4.284-4.284v-42.842a4.284 4.284 0 0 1 4.284-4.284h8.568a4.284 4.284 0 0 1 4.284 4.284v42.842a4.284 4.284 0 0 1-4.284 4.284zM457.36 175.654h-8.567a4.284 4.284 0 0 1-4.284-4.284v-42.842a4.284 4.284 0 0 1 4.284-4.284h8.568a4.284 4.284 0 0 1 4.284 4.284v42.842a4.283 4.283 0 0 1-4.284 4.284z"/></g><path d="M93.2 235.634H50.358a8.57 8.57 0 0 1-8.57-8.569V124.243a8.569 8.569 0 0 1 8.57-8.568H93.2a8.569 8.569 0 0 1 8.568 8.568v102.822a8.568 8.568 0 0 1-8.568 8.569z" fill="#ffdc5a"/><g fill="#625d6b"><path d="M63.21 175.654h-8.57a4.284 4.284 0 0 1-4.283-4.284v-42.842a4.284 4.284 0 0 1 4.284-4.284h8.569a4.284 4.284 0 0 1 4.284 4.284v42.842a4.283 4.283 0 0 1-4.284 4.284zM88.916 175.654h-8.57a4.284 4.284 0 0 1-4.283-4.284v-42.842a4.284 4.284 0 0 1 4.284-4.284h8.569a4.284 4.284 0 0 1 4.284 4.284v42.842a4.284 4.284 0 0 1-4.284 4.284zM140.327 167.086H114.62a4.284 4.284 0 0 1-4.284-4.284v-42.843a4.284 4.284 0 0 1 4.284-4.284h25.705a4.284 4.284 0 0 1 4.284 4.284v42.843a4.283 4.283 0 0 1-4.283 4.284zM208.875 167.086h-51.411a4.284 4.284 0 0 1-4.284-4.284v-42.843a4.284 4.284 0 0 1 4.284-4.284h51.41a4.284 4.284 0 0 1 4.285 4.284v42.843a4.285 4.285 0 0 1-4.284 4.284zM328.834 167.086h-25.705a4.284 4.284 0 0 1-4.284-4.284v-42.843a4.284 4.284 0 0 1 4.284-4.284h25.705a4.284 4.284 0 0 1 4.284 4.284v42.843a4.285 4.285 0 0 1-4.284 4.284zM397.382 167.086H345.97a4.284 4.284 0 0 1-4.284-4.284v-42.843a4.284 4.284 0 0 1 4.284-4.284h51.41a4.284 4.284 0 0 1 4.285 4.284v42.843a4.285 4.285 0 0 1-4.284 4.284zM500.204 115.675h-17.137a4.284 4.284 0 0 0-4.284 4.284v42.843a4.284 4.284 0 0 0 4.284 4.284h28.935a34.25 34.25 0 0 0-1.024-8.313zM33.22 162.801v-42.843a4.284 4.284 0 0 0-4.283-4.284H11.799L1.024 158.773A34.336 34.336 0 0 0 0 167.086h28.935a4.286 4.286 0 0 0 4.285-4.285z"/></g><path d="M256.002 25.705a4.281 4.281 0 0 1-4.284-4.284V4.284A4.281 4.281 0 0 1 256.002 0a4.281 4.281 0 0 1 4.284 4.284v17.137a4.281 4.281 0 0 1-4.284 4.284z" fill="#736f7b"/></svg>