<svg xmlns="http://www.w3.org/2000/svg" width="512.001" height="278.069"><path d="M211.862 114.759a4.423 4.423 0 0 1-1.906-.431L6.922 17.224a4.413 4.413 0 0 1-2.508-3.982V4.414A4.411 4.411 0 0 1 8.828 0h8.828a4.411 4.411 0 0 1 4.414 4.414 4.411 4.411 0 0 1-4.414 4.414h-4.414v1.633l200.526 95.901a4.418 4.418 0 0 1 2.078 5.888 4.42 4.42 0 0 1-3.984 2.509z" fill="#736f7b"/><path d="M300.138 101.517h-88.276c-9.751 0-17.655 7.904-17.655 17.655V128h123.586v-8.828c0-9.751-7.904-17.655-17.655-17.655z" fill="#ededee"/><path d="M8.828 119.172h478.436a8.828 8.828 0 0 1 8.618 6.912l15.908 71.586c.14.629.211 1.271.211 1.916v52a8.829 8.829 0 0 1-8.828 8.828H141.24l-132.963-8.31A8.829 8.829 0 0 1 0 243.293V128a8.829 8.829 0 0 1 8.828-8.828z" fill="#dcdbde"/><path d="M0 207.448v35.844a8.827 8.827 0 0 0 8.277 8.81l132.963 8.311h361.932a8.829 8.829 0 0 0 8.828-8.828v-44.138H0z" fill="#96e178"/><path d="M22.069 198.621h488.959l.761-.949-13.521-60.844h-476.2a4.414 4.414 0 0 0-4.414 4.414v52.966a4.415 4.415 0 0 0 4.415 4.413z" fill="#625d6b"/><path d="M8.277 252.104l132.963 8.31h361.932a8.829 8.829 0 0 0 8.828-8.828v-17.655H0v9.362a8.829 8.829 0 0 0 8.277 8.811z" fill="#8ccd73"/><circle cx="132.414" cy="251.586" r="26.483" fill="#504b5a"/><circle cx="132.414" cy="251.586" r="13.241" fill="#dcdbde"/><circle cx="388.414" cy="251.586" r="26.483" fill="#504b5a"/><circle cx="388.414" cy="251.586" r="13.241" fill="#dcdbde"/><g fill="#504b5a"><path d="M432.552 145.655h44.138a8.829 8.829 0 0 1 8.828 8.828v97.103a8.829 8.829 0 0 1-8.828 8.828h-44.138a8.829 8.829 0 0 1-8.828-8.828v-97.103a8.829 8.829 0 0 1 8.828-8.828zM203.034 145.655h44.138a8.829 8.829 0 0 1 8.828 8.828v97.103a8.829 8.829 0 0 1-8.828 8.828h-44.138a8.829 8.829 0 0 1-8.828-8.828v-97.103a8.83 8.83 0 0 1 8.828-8.828z"/></g><g fill="#625d6b"><path d="M216.276 242.759h-8.828a4.414 4.414 0 0 1-4.414-4.414v-70.621a4.414 4.414 0 0 1 4.414-4.414h8.828a4.414 4.414 0 0 1 4.414 4.414v70.621a4.415 4.415 0 0 1-4.414 4.414zM242.759 242.759h-8.828a4.414 4.414 0 0 1-4.414-4.414v-70.621a4.414 4.414 0 0 1 4.414-4.414h8.828a4.414 4.414 0 0 1 4.414 4.414v70.621a4.416 4.416 0 0 1-4.414 4.414zM445.793 242.759h-8.828a4.414 4.414 0 0 1-4.414-4.414v-70.621a4.414 4.414 0 0 1 4.414-4.414h8.828a4.414 4.414 0 0 1 4.414 4.414v70.621a4.414 4.414 0 0 1-4.414 4.414zM472.276 242.759h-8.828a4.414 4.414 0 0 1-4.414-4.414v-70.621a4.414 4.414 0 0 1 4.414-4.414h8.828a4.414 4.414 0 0 1 4.414 4.414v70.621a4.415 4.415 0 0 1-4.414 4.414z"/></g><g fill="#736f7b"><path d="M269.241 189.793h61.793a4.414 4.414 0 0 0 4.414-4.414v-35.31a4.414 4.414 0 0 0-4.414-4.414h-61.793a4.414 4.414 0 0 0-4.414 4.414v35.31a4.415 4.415 0 0 0 4.414 4.414zM119.172 189.793h61.793a4.414 4.414 0 0 0 4.414-4.414v-35.31a4.414 4.414 0 0 0-4.414-4.414h-61.793a4.414 4.414 0 0 0-4.414 4.414v35.31a4.415 4.415 0 0 0 4.414 4.414zM39.724 189.793h61.793a4.414 4.414 0 0 0 4.414-4.414v-35.31a4.414 4.414 0 0 0-4.414-4.414H39.724a4.414 4.414 0 0 0-4.414 4.414v35.31a4.414 4.414 0 0 0 4.414 4.414zM348.69 189.793h61.793a4.414 4.414 0 0 0 4.414-4.414v-35.31a4.414 4.414 0 0 0-4.414-4.414H348.69a4.414 4.414 0 0 0-4.414 4.414v35.31a4.414 4.414 0 0 0 4.414 4.414zM500.231 145.655h-1.472a4.414 4.414 0 0 0-4.414 4.414v35.31a4.414 4.414 0 0 0 4.414 4.414h11.281z"/></g></svg>