<svg xmlns="http://www.w3.org/2000/svg" width="512" height="370.758"><path d="M92.69 114.757H79.448a8.829 8.829 0 0 1-8.828-8.828v-8.828a8.829 8.829 0 0 1 8.828-8.828H92.69c7.313 0 13.241 5.929 13.241 13.241 0 7.314-5.929 13.243-13.241 13.243z" fill="#ff6464"/><path d="M92.69 114.757h-4.414V88.274h4.414c7.313 0 13.241 5.929 13.241 13.241 0 7.313-5.929 13.242-13.241 13.242z" fill="#736f7b"/><g fill="#625d6b"><path d="M317.793 70.619a8.826 8.826 0 0 1-8.828-8.828V38.964c0-4.715 1.836-9.146 5.173-12.483l6.241-6.241a8.825 8.825 0 0 1 12.483 0 8.825 8.825 0 0 1 0 12.483l-6.242 6.241v22.827a8.823 8.823 0 0 1-8.827 8.828z"/><path d="M326.621 159.776L300.138 8.826H172.503c-12.946 0-23.994 9.359-26.122 22.129l-13.967 83.802v132.414h194.207z"/></g><g fill="#736f7b"><path d="M220.69 211.861h97.103L283.902 42.406a8.826 8.826 0 0 0-8.657-7.096H220.69zM158.897 123.585l8.827 88.276h35.31V35.309h-26.482z"/></g><path d="M132.423 123.585c-.483 0-.966-.039-1.457-.12-4.81-.802-8.061-5.35-7.258-10.159l13.965-83.801C140.527 12.409 155.173 0 172.5 0h136.466a8.826 8.826 0 0 1 8.828 8.828 8.826 8.826 0 0 1-8.828 8.828H172.5a17.597 17.597 0 0 0-17.414 14.754l-13.965 83.801c-.716 4.314-4.457 7.374-8.698 7.374z" fill="#96e178"/><path fill="#504b5a" d="M229.517 247.171h105.931v35.31H229.517z"/><path d="M335.448 291.309h158.897l13.919-48.716A97.127 97.127 0 0 0 512 215.917V175.75a8.828 8.828 0 0 0-7.991-8.788l-167.724-15.974c-5.183-.493-9.664 3.582-9.664 8.788v122.705a8.828 8.828 0 0 0 8.827 8.828z" fill="#96e178"/><g transform="translate(0 -70.622)" fill="#625d6b"><circle cx="123.586" cy="317.793" r="123.586"/><circle cx="423.724" cy="370.759" r="70.621"/></g><circle cx="423.724" cy="300.137" r="44.138" fill="#ffdc5a"/><circle cx="423.724" cy="300.137" r="26.483" fill="#ffc84b"/><circle cx="123.586" cy="247.171" r="79.448" fill="#ffdc5a"/><circle cx="123.586" cy="247.171" r="52.966" fill="#ffc84b"/><circle cx="123.586" cy="247.171" r="17.655" fill="#736f7b"/><g fill="#8ccd73"><path d="M256 255.999a8.826 8.826 0 0 1-8.828-8.828c0-68.147-55.439-123.586-123.586-123.586-17.181 0-33.818 3.457-49.431 10.28a8.816 8.816 0 0 1-11.62-4.556 8.825 8.825 0 0 1 4.552-11.625c17.862-7.797 36.871-11.754 56.5-11.754 77.879 0 141.241 63.362 141.241 141.241a8.826 8.826 0 0 1-8.828 8.828zM353.103 185.947v25.913a8.829 8.829 0 0 0 8.828 8.828h123.586a8.829 8.829 0 0 0 8.828-8.828v-18.189a8.827 8.827 0 0 0-8.277-8.81l-123.586-7.724c-5.083-.318-9.379 3.718-9.379 8.81z"/></g><path d="M317.793 229.516h-8.828a8.829 8.829 0 0 1-8.828-8.828V52.964a8.829 8.829 0 0 1 8.828-8.828h8.828a8.829 8.829 0 0 1 8.828 8.828v167.724a8.829 8.829 0 0 1-8.828 8.828z" fill="#504b5a"/><g fill="#625d6b"><path d="M432.552 220.688h-17.655v-17.655a8.829 8.829 0 0 1 17.656 0v17.655zM459.034 220.688h-17.655v-17.655a8.829 8.829 0 0 1 17.656 0v17.655zM406.069 220.688h-17.655v-17.655a8.829 8.829 0 0 1 17.656 0v17.655z"/></g><circle cx="423.724" cy="300.137" r="8.828" fill="#736f7b"/></svg>