<svg xmlns="http://www.w3.org/2000/svg" width="512" height="194.207"><path d="M337.384 194.207h-74.492a8.826 8.826 0 0 1-8.564-6.687l-7.156-28.623h105.931l-7.156 28.623a8.825 8.825 0 0 1-8.563 6.687z" fill="#dcdbde"/><g fill="#625d6b"><path d="M273.655 158.897v17.655a8.829 8.829 0 0 0 8.828 8.828h26.483a8.829 8.829 0 0 0 8.828-8.828v-17.655zM326.621 158.897v17.655a8.829 8.829 0 0 0 8.828 8.828h11.034l6.621-26.483z"/></g><g fill="#dcdbde"><path d="M44.138 52.966l-7.114-42.687C36.127 4.899 40.276 0 45.731 0h25.23a26.494 26.494 0 0 1 15.393 4.932l54.887 39.206zM44.138 123.587l-7.114 42.687c-.897 5.38 3.252 10.279 8.707 10.279h25.23a26.494 26.494 0 0 0 15.393-4.932l54.887-39.206z"/></g><path d="M512 88.276c0 43.878-90.902 79.448-203.034 79.448C150.069 167.725 0 132.154 0 88.276 0 44.398 150.069 8.828 308.966 8.828 421.098 8.828 512 44.399 512 88.276z" fill="#ededee"/><path d="M0 88.276c0 9.288 6.787 18.197 18.897 26.483h481.504C507.887 106.473 512 97.564 512 88.276c0-2.986-.457-5.928-1.277-8.828H2.099C.755 82.349 0 85.29 0 88.276z" fill="#d2555a"/><path d="M506.905 70.621c-3.592-6.191-9.013-12.107-16.061-17.655H34.287C22.981 58.514 14.192 64.43 8.337 70.621z" fill="#ff6464"/><g fill="#dcdbde"><path d="M114.759 97.104H44.138a8.829 8.829 0 0 1 0-17.656h70.621a8.829 8.829 0 0 1 8.828 8.828 8.83 8.83 0 0 1-8.828 8.828zM485.517 49.061v78.431C502.342 115.919 512 102.543 512 88.276c0-14.266-9.658-27.642-26.483-39.215z"/></g></svg>